<mxfile host="app.diagrams.net" agent="Mozilla/5.0 (Windows NT 10.0; Win64; x64) AppleWebKit/537.36 (KHTML, like Gecko) Chrome/133.0.0.0 Safari/537.36 Edg/133.0.0.0" version="26.1.0">
  <diagram name="Page-1" id="4T_y4jf6k6DnxZC0zojw">
    <mxGraphModel dx="1442" dy="599" grid="0" gridSize="10" guides="1" tooltips="1" connect="1" arrows="1" fold="1" page="0" pageScale="1" pageWidth="850" pageHeight="1100" math="0" shadow="0">
      <root>
        <mxCell id="0" />
        <mxCell id="1" parent="0" />
        <mxCell id="PnbTw0q2sO5g_yor8Df--1" value="" style="shape=image;verticalLabelPosition=bottom;labelBackgroundColor=default;verticalAlign=top;aspect=fixed;imageAspect=0;image=data:image/png,iVBORw0KGgoAAAANSUhEUgAAAaYAAAK4CAYAAAA/RVl1AAAAAXNSR0IArs4c6QAAAARnQU1BAACxjwv8YQUAAAAJcEhZcwAADsMAAA7DAcdvqGQAAMT6SURBVHhe7J17fFP1/f9fJwlQEKfOKeh3SotlI7X9SvG2i5tMtqmtVLmomNBahoriLkoLAjKuBV2bOnWoU4fcvqk6BLSsHSKUS2fhJ9qiXIKjNEWn1gsTtZbSJvn8/sg56cknOZeSnJy0vJ+Px+dB+36f83nmE07y6Uk+F4ExxiDj5MmTsNlssFqt8nCIEydOoH///nwYAOD3++Hz+dCvXz8+FeLTTz/FoEGD+DCQALcSRnvNbDO5IzHSbZYX5ObDQC92m+VFgtzWP/7xjwsYY5CKz+eD1WoN/c4Xv98Pi8USEZcXQRAiYlJpbW3FgAEDIuIsAW6lYrTXzDaTOzJnpNssLyN3RJz1YrdZXpYgt9De3h52xxQIBAAAFotFHg4RCAQUc9CRP3bsGM4991w+DCTArYTRXjPbTO5IjHSb5QW5+TDQi91meZEgt0Af5RnvNbPN5I7ESLdZXpCbDwO92G2WFwlyK3ddBEEQBGEC1DERBEEQSQV1TARBEERSQR0TQRAEkVRQx0QQBEEkFdQxEQRBEEmF0NLSEjZc3O/3QxAExbHmnZ2d6NOnDx8GxDHojDHFoYIA0NraioEDB/JhIAFuJYz2mtlmckdipNssL8jNh4Fe7DbLiwS5aR5TArxmtpnckRjpNssLcvNhoBe7zfIiQe7o3RpBEARBmAR1TARBEERSQR0TQRAEkVRQx0QQBEEkFdQxEQRBEElF1G0vlIb6QSMf0FjyHDqWTFc7Vy2vx62EWr3QyOvxmtlmckeiVjc08lpus7wgNx8GNOqGRj6Z3WZ5kSC34PP5wjomn7jRkyAI8nCIjo4O9O3blw+H0Mp/9tlnOP/88/kwkAC3EkZ7zWwzuSMx0m2WFzrcb775JubNmwebzcanQxu0KaGV9/v9ikOEtc6NNX86uo32WiwWLF26FFdddRWf1rzO4nGN0zymBHjNbDO5IzHSbZYXOtx1dXXYvHkzFi9ezKcJIowZM2Zg4sSJuPrqq/mU5nUWj2s8+j0VQRC9EovFApvNRoWKalH6uC1RmGsnCMIUOjo6FIvf7+cPJ4iEQh0TQZyGMMZw4FBTqOz3HMGBQ03YUdfAH0oQCYc6JoI4DZG+nB465AIMHXIBLkm9EEOHXMAfRhCmQB0TQZyGdHR04sSJdtx++8SwQh/lEcmA0NbWFjYqz2jUxsD3VsxsM7kTi1le6HDX1tZi+/btWLp0Kb788jjq3zuEDa9UBJMMgABcd/0tuPGXP0H/lBT+dOI0Yvr06bjllltw5ZVX8inN6ywe0HDxBHjNbDO5IzHSbZYXOtx1dXXYsmULlixZgk8//Rx76vfj3HPOhNDVL8H70RfIu+FnOOOMM/gqegzesgwM3ecCW53Dp1SpLnACq93o3lm9k6KiItx22200XJwgiMTR2dmJY8e/wb+9H+N978ehf4Mf5QVn4J9WbHQidw0fJMyCOiaCOA0ZOPAM3HzjtVGLtDRMj2CjE4IgQBAEZJR5uWQ1nEIGyhuj/Rw8RxAyUN7oRfmcCgAVyBWcqBbvurryXednZAkQssrhjaiDUxMxQR0TQZyGnH32WaqlZ1ANZ14FHJUM7LALmDkX1fwh0djoRgUcqGIMjB1EUXoaipY6ADhQxdzIaSxH7szsYL4yG8VjyxHs8jzIXsrA9hUhLaIOXkLEAnVMBEH0TBo9aIAdI+0A0otwkOn8fmhMCVyZFcgV73icG7m8px4eiPm8CmB/PTwAILmgow4iJqhjIgiiZ5JuRzY8qPcAaCxHRtSP1KS8B11Th9NQtI+BMYaqfKDhkBewj4TU5wR/lu6GGFjUDi9KHUTcsPj9fsiL9PkyH5eKWk4a4MfH5SUQCETE5Dm189VyetxKxWivmW0md2Qx0m2W16/T3bvIgbvSgYo8AcKwYqC0ivtILQfOfATzY5d3hRvLkSHe6eSusWPK2DSxkxO/Y0ovgiu/624o8rsrhTp6GUrXk1Jcfp3xcamo5eTXeNT9mKCyH0dAZT8N6MirjYE32q2E0V4z20zuSIx0m+WFDndtbS127NiBJUuW8GmCCGP69OkYN25ct+cxxesap3lMCfCa2WZyR2Kk2ywvdLjl85gIQg2ax0QQBEEQMqhjIgiCIJIK6pgIgiCIpII6JoIgCCKpoI6JIAiCSCqoYyIIgiCSCqGlpSVsuLjf74cgCIpjzTs7O9GnTx8+DIhj0BljikMFAaC1tRUDBw7kw0AC3EoY7TWzzeSOxEi3WV7ocC9fvhwrV65EVlYWnwZjDIK4q+2p8PXXX+PEiROKw4jViNUdy/mxnIsYz0/mcw8cOID7778fd9xxB5/SvM7icY3TPKYEeM1sM7kjMdJtlhc63HV1dXjttdcwa9YsPo329nakKGwO6Bdn5vft25dPhdi9ezfWrVuHsrIyPoWOjg5YrVbFdsfq/vzzz3HeeefxYaAXu432Ll26FJMnTzZtHhMYR3t7O/P5fHw4RFtbGx8K4fP5WHt7Ox8Oo6WlhQ+FMNqthNFeM9tM7kiMdJvlZTrcNTU1bM6cOXyKsTi4d+zYwe655x4+zFgStLs3uo32Tp8+ne3evZtPM5YAN2OMRb/fIgiCIAiToI6JIAiCSCqoYyIIgiCSCuqYCIIgiKQi6rYXSkP9oJHXWvIcOpZMVztXLa/HrYRavdDI6/Ga2WZyR6JWNzTyWm6zvNDhfvPNN7FlyxYsXLiQT8fsrqurg9vtxlNPPcWnVOuGRl6PW6vdaueq5ZPZbbR39uzZmDBhwilte6FUNzTy8jZbbDYb5MViscBqtYbF5AVAREwq0tBGPi4vgiBExKRitFupGO01s83kjixGus3y2nS4pcLnPnw8GwMGDEBKSkqwXP4kPrTZYNs0GSkpk7G1b18AzXjy8mDu4yj1S3NX+LjNZoNl2/SuOkPlQzx5eQqcL36m2q54tNvM59wot9FetTqMdttsNlik8e5SAQBBEMJifJ6PyXPSA1Mqanmj3UrFaK9antyROSnPx+Q5tbqtJrrVckZ6rTrdUf0WABmPoIkxMNYElzATeY99AKtFABCciLn5rgzMPOBA1f4ZSOPPF91R67ZagdGPw/fudKTz5wiAYElMu/m4PM/H5Dm1uq0mutVy8fAK4h8afN6aALfVaqXvmAiCkONB/X4ge3jXVuEeVxZuqZiIKuZGTtixOtn6AGyXPQYvAG9ZhthB5kK22TlBhEEdE0EQwMHZGCp2GBWZLpSMkRIVmDnLA+AlFJd5w8/pNtWYO9MDRyUDYy5k7+fzBBGEOiaCIGQf5TGwfUXoul+yo/SQD4eWDodn5lxUh53UTRo9aIAdI+0AYMfITP4AgghCHRNBECpkw54OpE5/FA5UILcghq4p3Y5seFDvQegjQ4KIBnVMBEHo4AaUlNqBNcV4tpnP6SUH7koHKvIECEIxGuiOiVBAaGtrC5vHZDRqY+B7K2a2mdyJxSwvdLhra2uxdetWLFiwgE/FzK5du+B2u7Fs2TI+BZfLhW+++YYPAwAuvPBCTJ06lQ93C612G4lZbqO9s2bNwvjx47s9jyle0LYXCfCa2WZyR2Kk2ywvdLjr6uqwZcsWLFmyhE/H7N65cyfcbjeeffZZPoX33nsPjDFYokys7N+/P/7nf/4nJrdWu818zo1yG+2dM2cObrvtNtO2vYi8UgiCIOLID3/4Q2RmZiIrKyuipKen84cTBHVMBEEQRHJBHRNBEASRVFDHRBAEQSQV1DERBEEQSYXF7/dDXqSlx/m4VNRy0gA/Pi4vgUAgIibPqZ2vltPjVipGe81sM7kji5Fus7x+nW7GWETOHye3Ut3J0G4+LhW1XDK7jfYyxhQdSnEpp1a/Wk7e5qj7MUFc5TUaAZX9NKAjrzYG3mi3EkZ7zWwzuSMx0m2WFzrctbW1eOihh3D55ZfzaTDGIAjBlcSjoZVvbGzEf/7zH4waNYpPhd5wlM7Xqlsrf/LkScVh1b3VbbT3rbfewjPPPNPteUzxusZpHlMCvGa2mdyRGOk2ywsd7rq6Orz44ov4wx/+wKdV3+gCgQB8Pl9ov5xovP3226iqqsL8+fP5FDo6OmAT9+qJRqxutTfK3uo22vvEE0/gvvvuM20eExhHe3s78/l8fDhEW1sbHwrh8/lYe3s7Hw6jpaWFD4Uw2q2E0V4z20zuSIx0J8Lr9XrZihUr+ENYS0uLYq69vZ3V1NSwOXPm8CnGuuFWYseOHeyee+7hw4zFsd1KJOI5V8Ist9He6dOns927d/NpxhLgZoyx6F0qQRBJy6pVqzB58mQ0N0cuWiflCKInQx0TQRAEkVRQx0QQcUTps3cA6Nevn+Jn7wRBdEEdE0EQBJFUUMdEEPGi+SkUPxPr9uMEQQgtLS1hw8X9fj8EQVAcatjZ2Yk+ffrwYUAcasgYU/24orW1FQMHDuTDQALcSujxtrS08GFAp/fbb7/FGWecwYcBHW6fzwebzcaHAXInnfuygTUo3DgGyyefg/aUwThbvMzbj7fgeHsKzv7e2UixAUA7jrccR3vK2Rh8dgreffdddHZ26vY+//zzeO6551BZWYkLLrggdMy3336LiooKPPfcc9izZ0/Y+X6/Hw0NDTh06BBmz54dlkMcXlsNDQ2oqKhAWVkZn9J8vmN1m/meYpbbaO/ixYuRl5eHkSNH8ocY7rZarTRcnOn0rlixggGgQkWxfPTmPHbdcAcrWe1m9/8oh/3tE8ZOrHewH//Ozdatfphdd+vf2CfsBFt39zhW8vd1zDXWzop2MXbhhRdG1GVUuf/++/nLm7E4vLZouHgkRrqN9po9XJwm2Or0vvzyy5g8eTIWLFiAIUOGhHKBQACBQEDxL10A+Prrr/Gd73yHDwPiX+cWi0XxL4yOjg7FSXbkTi73bZe34NYXr0fV0mx4y5xYP9aNou8fR0NtDbyNNShZm4Z1NUVomT4SRa1O/PaOcRj3izRU/v3vaGtr0+197bXX8Oqrr6KsrAzf+973Qsd8/fXX2LZtG1599VWsWLEi7Hyfz4fDhw/DZrMlfKPAk9X3ISX3r+JvDlQxN3Iay5ExrBgeAMBwuA57UJReDWeWG0AFKvbb4aqcguV5xfBgIqrYi+Hn5FeBrc4BTH5PMctttNfsjQLpjkmnV7pj8nq9YTk9XjPbTO5IDHMfdjFHaRNjjLGmUgdzHWas7sHrWFFNE/vym4Os5A4Xa2KMfXn4E/bll02s/skcdt1jweNZN7wLFiyIei22tLSEcjztZk6wrbqXYdJGxhhjTaV25qhkjB1uYlLLDy4ZHoyxKuaAnbkOM8YqHQyZLnbY52OvOsAclYxV5Ys5eT1m/V+LmOU22mv2HVP0PxkJgogLgy9KgWfbLrjnlWCdx4sWAJ6nc5CzaD1qar9E9pVp/Cm9Envm8PBAOrA+S4AgCMh4+FBXPHMKxomb2toLxiENwPDM4QC88DR4UDwseM7QmR40HKKBJr0V6pgIIl6kF8E9I9jRpM1woygdSHuwClWLHLj/MTfqG5bhxwB+/Fg96h4rQtHf6+C6hq/k9KC6IBfYwMAYwwYHn41GGuzZdrgOB89hjOGg+FwTvQ/qmAgijnR2dvKhENIbKgHk3Joduvt5CbfruvvJmTcFy8VzBEGAcyN/BNFbiLrthdKXwtDIBzSWPIfGqrhqdUMjr8ethFq9EPNutxt333033n///YjBD9DwmtlmckeiVjc08lruRHhLSkpQUlIScS0eO3YMzzzzDEpKStDe3i47O3j+m2++iS1btmDhwoVhOSmvx61EXV0d3G43nnrqKT6lWjc08nrciXjOlTDLbbR39uzZmDBhwilte6FUNzTy8jZbbDYb5MViscBqtYbF5AVAREwq0ogiPi4vgiBExKRitFup6PFKTyZ/nB6vmW0md2Qx0p0I7y9+8QvMmzcvoi5BEEI5/nyLOArRYrFE5GzdcCsVae4KH7fFsd1KJRHPuVIxy220V60Oo902mw0Wq9UKeYG4wRQfl+f5mDwnPTClopY32q1U9Hgtso4pWo6Py4taXo+bj8lzanVbyR21GOlWy8XLe91112HhwoW45JJLwo6xWCyhXLTzBfEjMD4n5fmYPKfWLqvoVqtbKSfl+Zg8p8fNx+Tn90a3Wi4eXkH8Q4PPWxPgtlqt9B0TQRAEkVxQx0QQBEEkFdQxEQRBEEkFdUwEQRBEUkEdE0EQBJFUCG1tbQmd8ac2Bj6ZWbNmDaZOnQqPxxM2d0QPZraZ3InFLC90uGtra7F161YsWLCAT8XMunXrUFlZiVWrVvEpw9Fqt5GY5TbaO2vWLIwfP77b85jiBr+QXrwW4VMiEQsAdhc9XlrENRxyR8csL9PhNm0RV5Pb3RvdRntpEVeCIAiCkEEdE0EQBJFUUMdEEARBJBXUMREEQRBJBXVMBEEQRFJh8fv9kBdp6XE+LhW1nLTXDB+Xl0AgEBGT59TOV8vpcSsVPV6lY/R4zWwzuSOLkW6zvH6dbsZYRM4fJ7dS3cnQbj4uFbVcMruN9jLGFB1KcSmnVr9aTt5mi8/ng7wAQEdHR1iMz/MxqUgPjI/LC2MsIiYVo91KRY9X/oTLc3q8ZraZ3JHFSLdZXp8Od2dnp2Id8XArHYOtDyLzT/+OiIfyutyNaHzfB5+vEa7LJuEfnJs/T163mc+5UW6jvQGx8+HzvgS4fT4fzWNiOr00jykcckfHLC/T4TZtHlPVvcz+6GE+HEKPu6nUzhyVfDaIVrvNfM6NchvtpXlMBEGcJnhRniVujZ5VjuBm6tWYPGBAMFZQHTxsozO0d5TNlo9N2IS5Mz2oyMtAeaMX5VlOVMuOGzx4sLjNuqx+QUBGmfZ27URyQh0TQRAJwVuWi+UFTWCMoalgOXLLvPCWFePdJQfBGEMVilHeCHjtJWCMgTGGjZP24tCRG1BSaoej8iCK0qXaquHMA6oYQ0uLG8gTOyvY4TrMwFgVslevxzH5AyB6DNQxEQSREDz7gClj0wAAaWOnAPs88OwD7sxLBQDkrA52PGnpHjjFu54x/8dVItHoQUO+EzkAgNFw5jfA0wgA2bCHOi+ip0Idk06OHj3KhwiC6Ab2LGD5huDHa94Ny4EsO+xZwKrK5mCsLAPOjV6UZ7nhZAyMNaH0Uq4SiXQ7ste4xbukrXCvoQ6pN0EdE0EQCSFtRhWmrB4KQRAwdPUUVM1IQ9qMKtzpzgjFSsakYVxBA3IFAYKQi4ZsYO8hIG14tvgdk1RbDtyVQK4gYPBgJ1DpFu+eiN6A0NLSEhw8LuL3+yEIAiyW6H1WZ2cn+vTpw4cBcUg1YwxWq5VPhWhtbcXAgQP5MJAAtxJ6vE888QRcLhf27NmDiy66KJTT4zWzzeSOxEi3WV7ocO/evRs7d+7E7Nmz+XTM7oaGBlRUVKCsrIxPmd7u3ug22rt48WLk5eVh5MiR/CGGu61WKw0XZzq9CxYsoOHiMsgdHbO8TIfbtOHiJre7N7qN9tJwcYIgCIKQQR0TQRAEkVRQx0QQBEEkFdQxEQRBEEkFdUwEQRBEUiG0t7eHDRcPBAKKQ/2gkQ+IK3Ar5QHg2LFjOPfcc/kwoFE3NPJ63Eqo1Qsxv3TpUpSUlOD999/HkCFDwnLQ8JrZZnJHolY3NPJabrO80OF+8803sWXLFixcuJBPx+yuq6uD2+3GU089xadU64ZGXo9bq91q56rlk9lttHf27NmYMGECrrzySv4Qw90WiwUWm80GebFYLLBarWExeQEQEZNK3759VfM2mw2CIETEpGK0W6no8UpPJn+cHq+ZbSZ3ZDHSbZbXpsMtFT5ni4O7ra0NPp8vIm5Lgnb3RrfRXrU6jHbbbDZYrFYr5AUABEEIi/F5PibPSQ9MqajljXYrFT1ei6xjipbj4/Kiltfj5mPynFrdVnJHLUa61XJGeq063Ur+WN1nnnkm+vXrFxGXzlfySnk+Js9pudXyvdWtlouHVxAnyfJ5awLcVquVvmMiCIIgkgvqmAiCIIikgjomgiAIIqmgjqmbpKYG944hCIIgjIE6JoIgCCKpENra2sLmMRmN2hj4ZGbJkiVYsmQJ2tra+JQmZraZ3InFLC90uGtra7F161YsWLCAT8XMrl274Ha7sWzZMj5lOFrtNhKz3EZ7Z82ahfHjx3d7HlPc4Jcej9ey5UokYsn07qLHK217waPHa2abyR2JkW6zvEyHO6m2vTjcxJrEH6O6xbwet1a7I9wyorpFktlttJe2vSAI4jTDi/Kxc+HhwyGq4Ry7ng8SpxHUMREEYSxH/4YsccUAoaAa2DgXxfsrkJtVDm9jOUYOGCBO/g1une4tK0bF/mIMLaiG15WFwqpgNdUF4tbqjeXIECcLCwXVvI3oBVDHRBCEoXz4+ksY8aoPjDGw1TnAmBK4Mh2o2leENIzD+rY2MMbQVArUe4C0GS44Ml1oWp3DVwUA8G5YjuxK1lUf0eugjokgCEO56J6HgVvEO6ascnjlyXTgtSuCd0xDZyp/uCcnbYYLyBPvmLLK8V/+AKLHQx0TQRAG8wus8QXvmKqyl2N9Y1emuiAXeDl4x1SVLz+HxwtPg/RzDtwseMdUlb0c+74IP5Lo+Vj8fj/kRVp6nI9LRS3HWHDkOR+Xl0AgEBGT59TOV8vpcSsVPV6lY/R4zWwzuSOLkW6zvH6dbsZYRM4fJ7dS3Uef/SVs4ndMuawUD6RdjB+OqEBuZhl+MH4EZmcF75j+j92BhoON8Pt/gBGsGEPz/4HUWyZj7/gUCEIuljMg4Pej8U8ZoQVpc1kpfvZd7Xbzcamo5fS2m4/Jc2rnq+W03EZ7GWOKDqW4lFOrXy0nb3PU/ZggrvIajYDKfhrQkVcbA2+0Wwk9Xmk/pvb2dj6t6TWzzeSOxEi3WV7ocNfW1qKmpqbb+zFBR15rPyaY2G70QrfR3lj2Y0KMbovFEjkxJ17j0JVIxBj47qLHS/OYwiF3dMzyMh3upJrHJCNWt1a7e6PbaC/NYyIIgiAIGdQxEQRBEEkFdUwEQRBEUkEdE0EQBJFUUMdEEARBJBXUMREEQRBJhdDS0hI2j8nv90MQBMWx5p2dnejTpw8fBsQx6IwxWK1WPhWitbUVAwcO5MNAAtxK6PE+8cQTcLlcaGlpCcvp8ZrZZnJHYqTbLC90uHfv3o2dO3di9uzZfDpmd0NDAyoqKlBWVsanTG93b3Qb7V28eDHy8vIwcuRI/hDD3VarNXJiTrzGoSuRiDHw3UWPl+YxhUPu6JjlZTrcRs5jqqmpYXfddRcfZiwJ2t0b3UZ7aR4TQRA9HqvVqvhXMkF0F7qSCIIgiKSCOiaCIAgiqaCOiSAIgkgqqGMiCIIgkoqo216ofYmplg9oLHkOHUumq52rltfjVkKtXoh5pW0v9HjNbDO5I1GrGxp5LbdZXuhwv/nmm9iyZUu3t73Q49ba9kLtXLW8HrdWu9XOVcsns9tobyzbXijVDY28vM0Wm80GebFYLLBarWExeQEQEZNK3759VfM2cbMwPiYVo91KRY9XejL5nB6vmW0md2Qx0m2W16bDLRU+Z4uTW6lui8WCD5s/hM32IZ68fDLe4PJqdWu5P2z+ULPdZj7nRrmN9qrVYbTbZrPBYrVaIS8AIAhCWIzP8zF5TnpgSkUtb7RbqejxWsSOSSnHx+VFLa/HzcfkObW6reSOWox0q+WM9Fp1upX88XAr1r31AeS9Clit6ZixvwI38flTdVcXIK9SX7v5uDzPx+Q5tbqtOp9zPi7P8zF5Tq1utVw8vIL4hwaftybAbbVa6TsmvTQ3N/MhgiB08LfS1+CZNQzOjV6UZzlRjeC/zoJgRzm5+nU4BQGCkIHyxuA51WLOZsvC40cAwIvyrGBMEMQ65lTAM3Mopm3uOl4QBAgF1QAAb1kGCn9TCJvNBqGgOnRMRpkXQDWcWU5MviK4rbtzY9hDJkyGOiaCIAzlrpk3w/7oYbjHyKMVwK0M7LAL7054CU7G0FQKLN/gBRrLUYwqMMbg85Vi722Pw9u4HsuzgzHG3MhBGoqWOmAvbcLTv/4A9nlMzFXB0eCBV7S8hInw+Q7D1ZALt+jD6vXB/P4GjHi5DYxVAXPK8bH84RGmQh0TQRAm4IBT6qgcE5EDIG14dvB3Tz08a3LFO6YxeOnAXnjSi+BCMCa/swpyMdI8TjGXiwpZZuL4G8SfRF+6HaIFyJyCmy8BADtGoj7UmRHmQx0TQRDJhX0k7PnSHZMP7e0rkQMgZ7V4V1SZHbyzkvA+g4y1zmDusAt2eV1q7K/H+wAAD+oxEml8njAN6pgIgjCW9Exg1jD93+PI7o5sNhtSLn8c3sZyZEjfIeUBrhlpgH0kMHMoph3OxZQG8W5qbD2yUQ8PX2c0Mhswe8AACEIusLQIF/J5wjSEtra2sHlMRqM2Bj6ZmTp1KtasWYO2tjY+pYmZbSZ3YjHLCx3u2tpabN26FQsWLOBTMbNr1y643W4sW7aMTxmOVruj8zomX3EI89/+A1L5VDc4NXfsGO2dNWsWxo8f3+15THGDX3o8XsuWK5GIJdO7ix5vYWEhbXshg9zRMcvLdLiN3PZix44d7J577uHDjCVBu6O7q5gj08UOmuIOEku7jfbSthcEQRAJJwfufUUx3S0RxkEdE0EQBJFUUMdEEARBJBXUMREEQRBJBXVMBEEQRFJh8fv9kBdp6XE+LhW1HGPBked8XF4CgUBETJ5TO18tp8etVPR4lepXisuLmW0md2Qx0m2W16/TzRiLyPnj5FaqOxnazcelopZLZrfRXsaYokMpLuXU6lfLydscdT8miKu8RiOgsp8GdOTVxsAb7VZCj1eax8TvxyTllc6FyW0mdyRGus3yQoe7trYWzz//PCZNmsSnwRiDIAh8OIRW/tChQ6ipqcG0adP4VOgNR+l8rbq18t988w3OPPNMPgz0YrfR3pUrV6K4uLjb85jidY0LTGqFyMmTJ2Gz2ULLkPOcOHEC/fv358OA2NP5fD7069ePT4X49NNPMWjQID4MJMCthB7vtGnTsHLlytB/uoQer5ltJnckRrrN8kKH+4svvsCyZcuivqF1dnaiT58+fBgQ3ywCgQBs4n460fj0008xYMCAqHX7fD5YxL2gohGru7W1FQMHDuTDQC92G+09ceIE/vCHP2Dw4MH8IZrXWVyucX6SU7wmSCmRiMlZ3UWPt7CwkKWmpvIpXV4z20zuSIx0m+Vl5I5Kb3Wb5WUJckfvUgmCIAjCJKhjIgiCIJIK6pgIgiCIpII6JoIgCCKpoI6JIAiCSCqElpaWsPHPfr8fgiCc8lBDxpjiUEFoDHM02q2EHm9xcTHq6uqwZ8+esJwer5ltJnckRrrN8oLcfBjoxW6zvEiUmx+yF6/hfkokYqhhd9HjpeHi4ZA7OmZ5Gbmj0lvdZnlZgtzRuzWCIAiCMAnqmAiCIIikgjomgiAIIqmgjokgCIJIKqhjIgiCIJKKqNteKA31g0Y+oLHkOXQsma52rlpej1sJtXoh5qdOnYqdO3fi/fffj8hBw2tmm8kdiVrd0Mhruc3ygtx8GNCoGxr5ZHab5UWC3ILP5wvrmHw+H6xWq+J+HR0dHejbty8fDqGV/+yzz3D++efzYSABbiX0eO+77z5s3boVzc3NfFrTa2abyR2JkW6zvNDhfvPNNzFv3ryoWykwHXv0qOX9fr/i3Betc2PNn45uo70WiwVLly7FVVddxac1r7N4XOO0HxPnXbhwIbZv3x6WDwQCqK+vR3t7O6655pqwHGMMjDHs2LEjLC7HzDaTOxIj3WZ5ocNdV1eHzZs3Y/HixXyaIMKYMWMGJk6ciKuvvppPaV5n8bjGo99TncY0NzdHlKNHj6K1tRU+nw/bt2+PyB09epSvhiCSEovFApvNRoWKalH6uC1RmGtPQlasWAGv1xtWpK2obTYbCgsLw3KNjY0R3zsRRLLT0dGBd949FLX4/X7+cIJIKNQxadDc3IwlS5Zg4MCBGDhwIFauXBn1eyaC6EkwxmARECoCgr//98uv+EMJIuFQx6TBqlWrAADXXHMNzj77bKSmpmLhwoX8YQTRo5C+nB465AIMHXIBLkm9EEOHXMAfRhCmQB2TCs3NzViwYAGGDBmCwYMHAwAKCwvprono8XR0dOLEiXbcfvvEsNLR0UEf5RGmI7S1tYWNyjMatTHwycaSJUuwZMkSbNq0CW63Gzt37sSmTZtwww034Oc//zmeffZZ/pSomNlmcicWs7zQ4a6trcX27duxdOlSfPnlcdS/dwgbXqkIO+a6629Bzi9/gpSUlLA4cXoxffp03HLLLbjyyiv5lOZ1Fhf4pcfjtWy5EolYMr27RPN6vV4GgKWmpkZse7FgwQIGgHm9Xl1eM9tM7kiMdJvlZTrcNTU1bM6cOYwxxlpaPmMbq2tY3a49bNeuPaF/K175J2ttbeVPP/047GKO0iY+etowffp0tnv3bj7MmI7rLB7XOH2Up4D03dKKFSv4FO688076rono0XR2duLY8W/wb+/HeN/7cejf4Ed5wRn4py9elI8tRgMfJhIGdUxRkL5bSk1NxahRo/g0UlNT6bsmokczcOAZuPnGa6MWaWmYHstGJ4SsDGQIAgRBQEaZNxhvLA/FhKxyiFFUF4gx6diNc1G8H/DMHIqMMi+8ZRmhvFBQLTcRBkEdUxTU7pYkpLsmmkVP9ETOPvss1dLj2Z8NF2NglQ54Zs5FNarhHFaM7EoGxprgQjFyy7wAquFeAzgqgyu4HJyRBowpgSsTsJc24eAMYP1qD+ylTcFVXlbn8CbCAKhj4tC6W5KQ7ppWrVpFKz8QRLKRORJ2ALCPhB0N8Gz1oAF2jLQDQBrGFdjh2ecBkIOSUjsq8pTuiNJQtNQBz8yhEXdahHFQx8Sh525JQrprKikp4VMEQZjJ/uVY3wjAUw8PsmEfbUc2PKj3AIA3eBeUZQcApM04GLwbqnQADR54kQZ7tqyuMe5g/rAL9v318MhShDFY/H4/5EX6fJmPS0UtJ60Hy8flJRAIRMTkObXz1XJ63EpF8h45cgQLFizAtddei5/97GehPMSZ8nz9F110EQoKCrBmzRocOXIkol55/XxMnuPrlRe1XLTHxBdyRxYj3WZ5/Trdpw2ZwPJhAoS8Cjgq3chBDtyVDvHOaCiK4ULVjLTgQIcs8W4prwL2gnFIA2DPsoe+Ywp9BzWsGJ58J06XD/OUrieluPw64+NSUcvJr/Go+zFBZT+OgMp+GgBw/PhxPPfcc4oryLa1tWHAgAF8GJC9+Sstmc50LNeulldC8r777rvYvn07CgsLcfbZZ4flX3vtNRw/fhyFhYWyM4PtXblyJW6++WakpaWF5STMbHOs7pMnT+Kee+7BWWdFfu+gdS2ozXeI9TrTypvlNssLHe7a2lrs2LEDS5Ys4dO9i41OCHNGomlfEaK/Igktpk+fjnHjxnV7HlO8rvG4b3uxbds2PPPMM3A4HHya6IH85S9/wfLly3HJJZeExf1x2IYhlussWd1meaHDXVdXhy1btlDHRGhSVFSE2267zbRtLwzpmLZt29b7L/7ThDvvvBPz5s2jjklEy22WFzrcp03HRMSM2R2T8j0VQRAEQZiAoR1TR0cHKtZvjlr8tFAkQRAEEQVDOyYAsKdfjNzRVyPnuquQO/pq5I6+Gud9N/KLdIIgCIKA0R2T3+9HZ6cPmze/gTfeeAObNweL3+9HIBD21RZBEARBAEZ3TB0dnWg7cQIPPzwHDz/8MB5+eA6WLCnByZMd8AfoozyCIAgiEqGlpSXs1sXv90MQBMWx5p2dnejTpw8fBsQx6HV1dXj77bfxyCOP4IsvjuHthoM4/3tnAYwBggAw4MgHnyL319dgwIDoozPMxluWgaGrp3RjuKkX5VlDUb+UwT2Gz/VsJk2ahN/97ndITU0NiwcCATDGFEffAEBraysGDhzIh4E4XGfJ6jbLCx3u5cuXY+XKlcjKyuLTmvPhtPj6669x4sQJxdFaasTqjuX8WM5FjOcn87kHDhzA/fffjzvuuINPaV5n8bjGDR0u/vHHLdi95z0MGNAPAAMgAGD44r+tuDlnFM48M3rjzIY6pi5ouHg4Wm6zvNDhrqurw2uvvYZZs2bxabS3tytuDugXZ+b37duXT4XYvXs31q1bh7KyMj6Fjo4OWK1WxXbH6v78889x3nnn8WGgF7uN9i5duhSTJ082bbg4wrdqin2jpzfeeCO0GZm3+QNWsW5T1PLll8f5083lsIvZg70ns2faGTJdrIkx1lRqZ8Fe1c5ch4OHdsXAkF/FGGtirkwwR6WYE8+V1wk4WBWn7AkUFBSwxsZGPhyXjetiuc6S1W2Wl+lwyzcK5InVvWPHDnbPPffwYcaSoN290W20t1dvFJg65CLcMe76qCXZltavXlQMT34VGGNwZYvLNDaWI3dmNqoYA6vMRvHYcnilBSCjLYO/1omhM7NRJd5peTcshyfThSbGwJj7tFljiyAIIhYM7Zh6Dl54GoILN0JcwBGQViauQK64wCP218Ojsgx+xZqKrioBpM1wwbG/GEMFAYKQgfLGsDRBEAQRBeqYAEBc5j64P0vXv8G9XBzBOyb5XY/CMviOSoaq/ArkhvZ0yYGbiRuTZUpL7hMEQRBqUMckkrO6Co41uRAEAcUN4h1TehFc+eIdk2yLZrVl8HPmuWBfUxy8O9roDB4nDEXxfgecvWxgBEEQhBFE3fZCaagfNPKn1dL6pwkFBQWYPXs2hg4dGhbXWt4eOpbHVztXLZ/MbrO80OF+8803sWXLFixcuJBPx+yuq6uD2+3GU089xadU64ZGXo9bq91q56rlk9lttHf27NmYMGHCKW17oVQ3NPLyNltsNhvkxWKxwGq1hsXkBUBETCpKQxuJnosgCFGvB+n/mo/LiyAIETGpxOM64+PyYpbbLK9Nh1sqfO7Dx7MxYMAApKSkBMvlT+JDmw22TZORkjIZW/v2BdCMJy8P5j6OUr80d4WP22w2WLZN76ozVD7Ek5enwPniZ6rtike7zXzOjXIb7VWrw2i3zWaDRRrvLh/3Lr0ZRSsAImLynFJvSPRc+P9n+f81H5cXtTzicJ3xcXlRyxvpVssZ6bXqdEf1WwBkPCKOHm2CS5iJvMc+gNUiiHMPgc13ZWDmAQeq9s9AGn++6I5at9UKjH4cvnenI50/RwAES2LazcfleT4mz6nVbTXRrZaLh1f6Q4PPWxPgtlqt9B0TQRByPKjfD2QP75pa7nFl4ZaKiag61SkPWx+A7bLH4BUnrwc7yFws548jCBHqmAiCAA7OFqc15KIi04WS0ECdCsyc5QHwEorFwT+nTjXmzvTAUcnAmAvZ+/k8QQShjokgCNlHeQwsbCkuO0oP+XBo6XB4Zs6FNBHilGj0oAF2jLQDgB0jM/kDCCIIdUwEQaiQDXs6kDr9UTggn6N3CqTbkQ1pPl/wI0OCiAZ1TARB6OAGlJTagTXFeLaZz+klB+5KByryBAhCMRrojolQQGhra4vrjn21tbX4y1/+gltvvZVPET2Q5557Ds8++2zEPCY9qM13MBqz3GZ5ocNdW1uLrVu3YsGCBXwqZnbt2gW3241ly5bxKbhcLnzzzTd8GABw4YUXYurUqXy4W2i120jMchvtnTVrFsaPH9/teUzxIu7bXmzZsgWPP/44xo4dy6cBcd+W73znO3wYAODz+WAR51pE44MPPsDOnTsxadIkPoVAIIBAIBAaK98dtLxae4hoeWNps9nu//u//8OqVavwgx/8ICwXj20YYrnOktVtlhc63HV1ddiyZUvUye+xunfu3Am3241nn32WT+G9994DYyzqdda/f3/8z//8T0xurXab+Zwb5TbaO2fOHNx22229c9uLaMSyZPo777yjuLS+1jLxamh5tdqs5Y2lzWa7aduLcLTcZnmZDjdtexFJT3Ub7e3V214QBEEQRHehjokgCIJIKqhjIgiCIJIK6pgIgiCIpMLi9/shL9LS43xcKmo5aYAfYywiJ5VAIBARk+fU6lerW3LzcT1Fj5ePSUWPN9Y28zGpJMIdy/Mdq5uPSSWZ3WZ5/TrdSv+fanXrdSvVnQzt5uNSUcsls9toL2NM0aEUl3Jq9avl5G2Ouh8TxFVeoxFQ2U8DAHbs2IGampqIPV+aHxuB4XMOdQUufRSH3nkAqVWFSBkPvNq+Er8ONOGJKzIwW3gUh995ABfJKwBw4MABPP3001H3fMHWB5AyYwgO1T+I1FCwGY9fPhxvTfeiwnlB2OFyYm2zVl5t3H+yu++++248/PDDUecxGe1WykFH3iy3WV7ocNfW1uKhhx7C5ZdfzqfBGIMgBFcSj4ZWvrGxEf/5z38watQoPhV6w1E6X6turfzJkycVh1X3VrfR3rfeegvPPPNMt+cxxesaj/s8pm3btmHbtm0RcyW8ZRkYunoK3toyCVcOakN51lAsL2jCweFzIeQBVcyNTqeAWyruQBWriLqKcX19PZ599tmocyX8Ucf9e1GeNRS7Z3yEtQUXyuLhxNrmSG84CRn3r0Cs7nvvvRfz5s3DJZdcEpZLhNvMdp+q2ywvdLjr6urw4osv4g9/+AOfVn2jCwQC8Pl8qvutvf3226iqqsL8+fP5FDo6OmAT9+qJRqxutTfK3uo22vvEE0/gvvvu6/3zmJpK7QyZLvZWSwtjrIo5AOaoZIxVOhjgYK5SOwMmso0qbtV5TJumMVz6KGuSXAAD7MyeCTZh1Uf84WHE2ma1+QYsQeP+lYjVTfOYwtFym+VlOtw0jymSnuo22nt6zWPaX4yrBg+OurR+8czg0vozXbS0PkEQxOlMYjumTBfeamkBi7K0vuswCy6tP2seLa1PEARxGpPYjkmRrqX178CLtLQ+QRDEaUySdEwSN2DRo7S0PkEQxOlMwjqmtBkHwfYV4WI+McYNxtyhUXhpxfvA2EFM7RrzrYv/d6YTbzx+OT7YsQM7vnMPtm/fju3bn8Ezy7ZjdmYLfzhBEASRpAgtLS1hw8X9fj8EQVAcaqi1DUNdXR1qa2sxe/ZsPg0AaG1txcCBA/kwoMN94MABrFy5EmVlZXwKK1euxLfffht1fP55552nuj+UllerzYwxxeGRiLHNZruLioowffp0pKaG/6WQCLeZ7T5Vt1le6HDv3r0bO3fujPrajNXd0NCAioqKqK/N2NrdjKPei5B2iYLb+wEOnfddDFdp96m7tdut9Zwb5Tbau3jxYuTl5WHkyJH8IYa7rVZr4oaLS8Qy1FB1uLjG8Eo1tLxabdbyxtJms900XDwcLbdZXqbD3ROHix9+1M4mrlNyNzFXpoO5Ndp9qm497dZ6zo1yG+09vYaLEwRx+rH1AWQV5iNDECAITnHUrRflWQIEQcCAK55AcJJIVyx4XDXmzfLgpfEjUN7I1QkAG+eieH8FnKMewcNZGaFjqgsEODcGJ/UX/qYQNpsNQlZ50NFYLj4OAUIsg6wIQ6GOiSAIw/E0ZKOKMbBKoLjMC29ZLpYXNIExhoPOVcgt8wKN67E8uyo4nYS5kYMcLHrUjonr9qIona8RwJgSuDIdcG+fjSVLs7F8gxdANdxrHHCKcyRfwkT4fD40FSzH3I1A9aLlmHKYgTGGpqxiTKa+KSmhjokgCMOx548Nzlu0jwT2eeDZB0wZG5zJmJp3J7DPA6QXwYVc8Y6p6w5IF2OcyF69Ht6NblTkO0ODqSaOvwEAkDY8Gw2HdsLT4EHxsOAd09CZHrz7/ikP/yUMhDomgiAMx7NfXMDZUw9k2WHPgniHAzRXrgKy7ACAnNXBuxlWKd0B6SUHzuzlyJ3TANe8rpU294odj/dQA7KH/xz27OBk/uBdGUP9g90c/kskBOqYCIIwHHvDzOCdUB7gmpGGtBlVmLJ6KARBQIb7TlTNSAv//kc6bvgI5e+YkAZ7dgWco56BF0DOrdnwYArGyT/2c98Cm82GoaunoGQMkDNvCpaLd0yCINBHeUlK1G0vlIb6QSMfEJfWf/755zFp0iQ+DQD45ptvcOaZZ/JhQMdy7B988AH+8Y9/YNq0aXwKTGOpdzW0vGp5Pd5Y2qyWT4T7ySefxFNPPRWx7UVAY3l7aKyArHYdQSOfzG6zvNDhfvPNN7Fly5aILWmkvFLdetx1dXVwu91Rt6QJvPEHjNz3IPZOj353EqtbanfzYyNwC14NeZofG4H5P6jHqpuUz42XOxpqdUMjr+U22jt79mxMmDDhlLa9UKobGnl5mwWfzxfWMfl8PlitVsU3rI6ODsWl2AFg69atWLp0KX75y1/yKQDAt99+izPOOIMPAxoPGgCOHDmChoYGTJgwgU8B4hh6pXH/amh5terVysfSZq26tfKxul977TW89NJLEdteQMe18Nlnn+H888/nw0AcrjOtvFlus7zQ4ZY6psWLF/Npzbq18rW1taioqMAzzzzDp+B7/bcYsa8I+4u7VseUo1V3R8e/sezKDMw8EB63P3oY+4rT8Nlnn+Hb1aMxbNYIbPStwY1i3uvKwh+HNWBNnnnPuVH/30Z7H374Ydx666246qqr+LTh7r59+9I8JqbDq9VmLW8sbTbbTfOYwtFym+VlOtw9cR6THrdWu3uj22gvzWMiCIIgCBnUMREEQRBJBXVMBEEQRFJBHRNBEASRVFDHRBAEQSQVQltbW9hw8Vipra3F1q1bsWDBAj4FaIyB18Lj8eCpp57CsmXL+FRMNP95JBb+sB4rcprRfCQVqZc044krFmL42ytwPX/wKRBLm2MlVvfdd9+N2bNnR8xj0kOs7lgwy22WFzrcWq/NWFi3bh0qKyuxatUqPmU4Wu02ErPcRntnzZqF8ePHd3seU9zgh+zFOtyvJw8Xbyq1M0cln9Vus5Y3ljab7abh4uFouc3yMh1uGi4eSU91G+2l4eLxYsvvMeI3hYpL64eWvY9YWj84Qzz/H//E3JkeVORloLzRi/IssY6NTgwYMACCEFxKP/x8AVmu7qznRRAEQWjRezomAIfeHaG4tH5TwXKFpfUlbkRJqR2OyoOyJfar4cwDNrS1gbEqIE/q8KSFIKswYs0GHAvVQRAEQcRKr+qYhjtvUVxaP23slO4vrd/oQUO+U/yeKQfO/AZ4GgEgG/Zo+8MQBEEQMdOrOqZDKkvrezcs7/7S+ul2ZK9x43VA3ICMOiSCIAij6VUd0/B3ZwXvhKIsrT909RTFpfUl0oZni98xSZEcuCuBsQMGQBBygUr5R38EQRCEEVj8fj/kRVp6nI9LRS0nbcPAGIvISSUQCETE5Dm1+tXqZowBzlfh8/ng863G9X4//P6L8cBeXzC29wFc7PfDn/YA9vnEmHjcxQ/UY81NgD9nNXy+fXgg7WI8sFesI2c12tra4PP5sDpHqlOq/3qs3vsgzlV5zP44tJmPSUV6vvm4vMTqVn2+Vc71x8HNx6SSzG6zvH6dbqX/T7W69bqV6k6GdvNxqajlktlttJcxpuhQiks5tfrVcvI2W4Jv0F0F4tLjfFye52NSkR5YIBCIyEmFMRYRk4oet1Ld/gADWPScVtHj5WNSkdrMx+Ul1jbzMakkwi1dhPL4kSNHsHDhQni93ohzjhw5ghUrVuDIkSMxu/mYVBLRbj4mFS23WV6fDndnZyfefffdiJyU52NS0etWOia2dh9B0+Ho9Uolot3vN6JRVvepu/W1m49JxUi30d5or3upGO32+Xw0j4np8Gq1WcsbS5vNdkebx7Rt2zYGgD3//PNhcXlu27ZtMbuVSES7ldByx8t74MABtm7dOvb3v/+dvf3225pepuGeO3cuA8DOOussPsVYjG1mBs5jOvyonU1cp+4Ob3cTc2U6WJX4WyxuPe1We86NdBvtpXlMRI9lyJAhfChu9O/fnw+FsFqt6NevHx8OY9CgQXwoRL9+/VQ3V1RzG82rr76Kq6++GpdeeinGjx+P2267DVdccQXsdjuWL1/OH67JwoULIQgCSkpKMHjwYPzsZz/jD0kA25BvswW/1y0Q9zLf6AzNBZS2N/eWZYRiwXmH1Zg3yxPaWr26QJo/KH0PHJxTOHjwYAiCgIwyL7BxLor3VyA3qxwn5Q+B6FFQx0TElebmZj5E6ORPf/oTxo4di//+978oKyvDv/71L/y///f/8Ne//hXf/e53cf/99+Pee+/lT4uK1CEtWLAAqampeP7551FRUYH//d//5Q81nA+fW4K9jx4GYwxVKEZ5Y3B+YBULzgXEhMni/EDAXhqcd1iVvRzrG3Ow6FE7Jq7biyKUoxjS/EMX6sdKE+btmL+rBYxVIXv1enjHlMCV6UDVviKo/+lCJDPUMRG9kBoUT6/hg0nNSy+9hIULF8LhcOD9999HcXExfvrTn+Kqq67C1KlT8eabb2LGjBl49tlnUVJSwp8egu+QVqxYAa/Xi/z8fP7QhNF4CJh8S3D0a87qgyhCcH5gcIRrDiY63hXnBwLZw6Nvvw5PPTxrpPmHuajYXw8PACAbP1A4hei5UMdEGEJqaiof6ibtON7SguOtssgXLWhpOY52KX+8He3HW9ByPBiRHYlPvoiSaz+OFlmd7bJc6Gef6OWrNJiFCxfif//3f+F2u2GxRH9ZLl68GBMmTMD8+fPx+eefh+UWLlyIwYMHR3RIhYWFYceZQfpwYMWr4nzCsgw4PcH5gcG7pGq8VHGZ9vxA+0jY86U7Jn7VFqK3Ef0VQBAAdu7ciXfffRdPPvkkFi5ciJUrV2LlypXYtGkTAGDz5s2h2MqVK7F9+3YcOhSc5Lx7927U1dVh+/btodLc3BwqR48eDfs9HC/Kc8bD9UYdlv8mF+WNgOeRn8C5og51G+7HddN3AajB/fbrMPfFOrh/MxLFu7kq3igJz7Wuh/NXc1FTWwPXuPFY3gLUzZmCilYArRVwTq8BWqvx21//Fu7aGswddxeqj3N1GsSOHTtw6NAhTJs2jU9F8OCDDyIQCGDdunUAd4d00UUXJVWHJHHRPSswec2w0HzCkjHB+YG54t0PXlmh2MmkDR8R/I4J8hVb5Gtf8qTBnk3fMfV0hJaWlrBtL/x+PwRBUPyrrbOzE3369OHDgDi0uK6uDrW1tZg9ezafBgC0trZi4MCBfBjQ4T5w4ABWrlyJsrIyPoWAOI9C7UttJbS8Wm3W8sbSZjPdpaWleOyxx/iw4dxzx4/wRerTWLc0G2hvR7stBSmtXuza1QDvfjfm7puCptWAM+84llc6kLLRCSfccI+RaqiOkmvH8b11qDnsQc3S9UhbuxVFLb/FeM9cuAcWoXiwG8tancjYeB1KfnUOsMeFJy5ahas+eC7ssTFxroUgCGFxiY6ODvTt2xcffvghnwJjLOp5hw8fRn19Perq6hS3F5H/Xw8dOhQ/+MEPsHfv3lD+oosuwlVXXQWbzRZ2ngRjDF988QVaWlpQUxP5MWes11lDQwMqKiqivja1rrNY3bFc4z3VbbR38eLFyMvLw8iRI/lDDHdbrVYITHqliZw8eRI2m03xCTlx4oTiqCW/349t27Zh27ZtWLJkCZ8GAHz66aeKI6a03GvXrsXatWvx97//nU+FxtxrjdaKhpZXq81a3ljabLZ70qRJ+P3vfx82Au+VV17BjBkzsGbNGlxzzTVhdzybNm3Cn/70J7z44ovo168fvvrqq1BOjs/ng8VigcViwdGjR8Nyl1/0AVY0/jbYMTXWoCYlA97p9wPznsL41DrcPy0F7tWAswBwr84BonVMfO68Yoxen4O/zfwJ2p+fgupb3ShK92BuwXK0+1LgrChB9j/vQm7jw1h+a3/gP17sSRmCvKz/CXtsRnDOOefgyy+/xNGjR3HxxRfzaYD7vz7zzDMxcOBAtLS08IdpctZZZ+H48chbwVivs507d8LtduPZZ5/lU7qus1jcsV7jPdFttHfOnDm47bbbcPXVV/OHGO7u169fz/oo75JLLsE555zDhwkDGThwIL7//e8jNTU1VL73ve8BAK666iqkpqZi1KhRoTJ8+HAAwI9+9CP85Cc/QWFhYdSSn5+PO++8E4WFhZg/f35Yuek35ZjyRTGc8+bCeU8F2geejQvO/gS7amvw1PTlaGj9BN1+S/7eBUjZX4Nda+eiZL0H3hYAsGNKVjXWpzuRDQC/KsJ12+6Ca40bRTOXw/r9C2XfaQSLz+dDe3t7RFwqLS0tETGptLe3wydOUJQX6c38wIED3IOO5OOPP0ZrayvuvfderFixAqNGjQLE7/SKi4sj6pa7a2pqcP/99/NVEkTS0aM6JuJ04WzkPLcV7kUlcNf8DTlnpyDnuTr87T4HHn6uCgfXT8Fg5ATviABgjPxuCcE1DvlcehGqqkvguM8F9556LLsmmE6bcRBNi4KL+8JmR9H6rXDNKBK9XTUayejRowEAL774Ip+KQNoh9le/+hUKCwuxbds2rFixAqmpqXC5XEhLS8PChQv50wiiR0EdExFX+I/lCG2++93v4sEHH8SaNWuwevVqPh2itrYWc+bMwU033YSf/OQnobjUQT3xxBNITU3FggULqIMiejTUMRFJSWdnJx8KEVpPS4XWVtk4cw7p4zQl/OJik4nksccew09/+lPceeed+OMf/4gvvvgilOvo6MCyZctwww03YMiQIXjyySfDzpW4/fbbw+6gqIMieirUMRFJiVrHw8RVrNX49ttv+VAIv2wV5Gh0dHTwoYRQWVkJh8OBkpISnHfeecjKykJ2djbOOOMMPPDAA/j5z3+ON954A2lp6jNK+Y/4FixYgB/+8IehjwEJItkR2tvbw/50DAQCikP9oJEPBAKora1FTU2N4l9px44dw7nnnsuHAY26IX45/PTTT+Opp57iU6E3GrXzldDyquX1eGNps1o+Ee67774bDz/8cNgw5qNHj2L79u3Iz8+POH/nzp04evQo8vPzY3Yr5RPRbqW8ljse3rq6OmzcuBEHDx6Ez+dDeno6rr/+etxwww2q5yu516xZgzVr1mDnzp0466yz8NZbb0Wsc6j22LTaDAB1dXVwu92Kr021c9XyetxK7YZG3dDIJ7PbaO/s2bMxYcIEXHnllfwhhrstFgsEn88X1jH5fL7gOPIo8y0gm6ehxNatW7F9+3YsXryYTwEAPvvsM5x//vl8GNDhfvfdd/HXv/4VzzzzDJ8Coj22Ri+86WnB7dajIeYv0vBG1MuhlY+lzVp1a+VjdU+dOhVz587FJZdcwqcNd6vVrZU3y22WFzrc8+bNC0165tGqWyu/adMmrF27NupCs2a3uze6jfY+/PDDuPXWW3HVVVfxacPdffv2hcVqtUJeIE4e5OPyPB+T5ywWi+r5FoslIiY/X+1ctbzk7op9gMcnzMe/oxwbLK+jYMJrmvVKeT4mz6m1yRqHNvMxeU6tbmsc3Er5RLj5mDynVrfVRLdazkivVYf7hhtuwM9//vOInJTnY/KcWt1WqxVnnnlmaNV2vpjd7t7oVsvFwyuIk2T5vDUBbqvV2ou+Y2p+DiNSUiBIS+vLlr/3yrdTF5fM95YVo2J/MYYWVKP5sRHI/0ewmuoCcUl92TkD7nqdtxEEQRAG0Ws6pg82vYgR68SJj6tzANny92kYJy6xz9BUCtR7gLQZLjgyXWiS5rtweDcsR3Zl8Jy2v13PpwmCIAiD6DUd08X3/hEYL94x8Qs8pgPrs4J3P0NnBhfL1yJthgvIE++YrngCXYN3CYIgCCPpNR0TcB1WikvFBDcZ68pUF+QCG4J3P1Wq29J44WmQfs6BW7zL2jBiFRo+Cz+SIAiCMIZe0zF98NdfIEX8jikXLhSldy1/b781G8XDgnc/bjjQcMgLwI6RCH7HlHpzIfbeYoMg5EIaUyTf5nksHsGvog9CIQiCIOKM0NbWpjwF/hSora3F1q1bsWDBAj4FaIyB18Lj8eCpp57CsmXL+FRSE0ubYyVW9913343Zs2crbsegRqzuWDDLbZYXOtxar81Y2LVrF9xutymvTa12G4lZbqO9s2bNwvjx47s9jyluMI729nbm8/n4cIi2tjY+FMLn87E33niDzZkzh0+FaGlp4UMhtNzvvPMOu+eee/gwY6K7vb2dD+tCy6vVZi1vLG02211QUMAaGxv5VELcSiSz2ywv0+GuqalRfG3G6t6xY4fia7O9vZ0dPnSYMdbEXJkOVsXlY3E3HW7SbLeZz7lRbqO906dPZ7t37+bTjCXAzRhjveajPIIgkpStDyDvVQBIQ9G+OG6JvtGJ3A18kOgNUMdEEISh/K30NXhmDYNzoxflWU5UI/ivsyD4He7k6tfhlM0xBIBqMWezZeHxIwDgRbk4slYQxDrmVMAzcyimbe46PjSPUfyeuPA3hbDZbBAKqkPHZJR5g5tJZjkx+YoBEAQBzo1hD5kwGeqYCIIwlLtm3gz7o4e5PbMqgFsZ2GEX3p3wEpziHMPlG7xAYzmKUQXGGHy+Uuy97XF4G9djeXYwxpgbOUhD0VIH7KVNePrXH8A+T9oUsQqOBk9oushLmAif7zBcDblwiz6sXh/M72/AiJfbwFgVMKccH8sfHmEq1DERBGECDjiljsoxETkA0oZnB3/31MOzJle8YxqDlw7shSe9CC4EY/I7qyAXI83jFHO5qJBlJo6/QfxJ9KXbg7sVA0DmFNx8CcQRuvXhcx8JU6GOiSCI5MI+EvZ86Y7Jh/b2lcgBkLNavCuqzA7eWUl4n0HGWmcwd9gFcT9ibfbX430AgAf1GKm82DORcCx+vx/yIi09zselopaTNl+T9suJVgKBQERMnlOrX61uyc3H9RQ9Xj4mFT3eWNvMx6SSCHcsz3esbj4mlWR2m+X163Qr/X+q1a3XrVR3YOilwKxhcLzmR4AxBPxd//r9suckwICAH/60B1DKpDsmG1IufxyN75d1rXeZx1A6/WL4fzACmDkU9/37RkyuF++mbnkHI9g7OOD3wx8AGAvWL/cxFgj+e2kDZg8YAEHIBSt5AIO4x6233XxMnlM7Xy2n5TbayxhTdCjFpZxa/Wo5eZuj7scEcZXXaARU9tMAgB07dsS0HxNU3Gr7MUHHY1NCy6tVr1Y+ljZr1a2Vj9UdbT8meV7pXMTBrZSDjrxZbrO80OFW2ytNq26tvNZ+TDCx3Yjq3oTCyw9h3p7fY2hErgtj3EG06lbLG+2NZT8mxOi2WCw9ax7T3//+dzZp0iQ+zJiOcf9qaHm12qzljaXNZrtpHlM4Wm6zvEyH28x5TGa2O7q7ijkyXeygKe4gsbTbaC/NY+oGl1xyCQYMGMCHCYIgukkO3PuKkMqHiaSgR3VMBEEQRO+HOiaCIAgiqaCOiSAIgkgqqGMiCIIgkgrqmAiCIIikQmhpaQmbx+T3+yEIguJY887OTvTp04cPA+IY9Lq6OtTW1mL27Nl8GgDQ2tqKgQMH8mFAh/vAgQNYuXIlysrK+BQCgQCOeo8i7RIrnhn1KH6w/WmM5g9SQMvbdLgJQ4dFzuOB6GWMwWq18qkQsbRZ6/k22l1UVITp06cjNTV8/FIi3Ga2+1TdZnmhw717927s3Lkz6mszVndDQwMqKiqivjbNbndvdBvtXbx4MfLy8jBy5Ej+EMPdVqu1Z81jUt2PadM0NnzpIT6sC1VvpYMNX3KQj4bQmm/AYmyz1vNttJvmMYWj5TbLy3S4jZzHVFNTw+666y4+zFgStLs3uo320jymOPHco6/i0JzhikvrOzdWKy6tn5IyAo81QnFp/UMPZ8C5UWFpfVcWCn9TGIpFW1p/2qjB4mMIe8gE0WuwWq2KfyUTRHfpNVfSPbNuwfClhxSX1m/Icysurd/e/igaxj+muLT+8CUH4R7jVV1an7EmxaX1s1a00NL6BEEQOuk1HVN0ZEvr5zsVl9ZPSbkFLx5o0FhaP+2Ul9bPTQMtrU8QBKGTXt4xqSBbWr+9vR0+3xr1pfUby095af3DAC2tTxAEoZPe0zGlZwJzhuv/Hkd2d5SSkgLbZY/B21guW1ofcM1IA+wjgYcz4PSMw5QG8W5qbD2yUQ8PX2c0MhuwYPBgCEIusLQIF/J5giAIIoyo216ofYmplg9oLK0PHUumK9UNjW0vAhrLrauh5VXLq3uDS+v/YXM+sk+xzWp5dXeQWJ7vgMq2F4lwK+WT2W2WFzrcb775JrZs2RL1tRmrW2vbC7Vz1fJ63FrtVjtXLZ/MbqO9sWx7oVQ3NPLyNltsNhvkxWKxwGq1hsXkBUBETCp9+/YNVcznpCKIm39FK3rcSnVLbj6up+jx8jGpqHutEGCJuc18TCrq7mCJ1a10TCLcfEwqyew2y2vT4ZZKMNaKJy9PQUpKsAwYMADZj38I26bJSEmZjDdsNthsH+LJy1Mw4MplaA65g7Hsxz+McCu9NuXt/vDxbEzeFJ5Xa9dHT16OydXKeZvNBkH4EE9eLj1mqbyByZc/iS9Nfs6NchvtVavDaLfNZoPFarVCXgBAEISwGJ/nY/KcxRJ8I+ZzUpEeeLSix62Ulz+Z3S1q9Up5PibPKXtvQsX+GUhVzBvpDha1vB63Uj4Rbj4mz6nVbTXRrZYz0mvV6Zb7LQJgL20CYwxtbW04+FA6rBYBgACL1YrXJw/DzAMObHx3OoaKdQdjACyRbqW2hbXbAgjcuVrtFgTldlmtVlgsqZixvwI3hcUtEITgX+ZKj0uqn4/Jc2rPqVXnc87H5Xk+Js+p1a2Wi4dXEP/Q4PPWBLitVmsv+o6JIIi44SnLQO4aB6qYGzeKMW9ZBnLhgiuTO1iTbcgX/9LOXS3FpHmFAgZc8YQ4WpWfRyhjozMyFuIDce5i8DEKggAhqxgN/GFEj4E6JoI4jfHMHBrsHAaMlE2PqEDxTE/w37KukalpMw6CrR4X+l0vHz63BHjVB8YYXNnBIUPesmKgMjgCtm3RXuSWeYGIeYQi6wohrHWGx6JSjbmrp6CJMbANU/gk0YOgjokgTmO6PsqrR1F6KArXYYamUjs8M+fin+GndJvGQ0D28ODP9qzgRAvPPg8q8sQ7pgkvw7PPEzZSVj6P8KV39+qbntHoQUO2PTglQz6XkOhxUMdEEARHNuzpQNoMFxyowJjC2Lqm9OFAw6Hgz559wTsme5YdDumOqa0NbHXwXijaPMKJi/bChVztqSDpdmRLK7I0euijvB4MdUwEQSiQg5JSO/B/M/H4ET6nn4vueRi4JfgdU3FD8N4nbYYLkO6YBgwIri0ZbR6hSM7qKiCPX42FJwclBcsxVBAgjF3OJ4kehNDW1hY2jylWamtrsXXrVixYsIBPARpj4LXweDx46qmnsGzZMj6V1MTS5liJ1X333Xdj9uzZEfOY9BCrOxbMcpvlhQ631mszFnbt2gW32x31tfnWW2/h5MmTfDhufP311/jOd77DhwEAgwcPxrBhw/hw3NB6zo3CaO+sWbMwfvz4bs9jihcCYyysYzp58iRsNlto+B7PiRMn0L9/fz4MiHtxbNu2Ddu2bcOSJUv4NADg008/xaBBg/gwoMO9du1aVFdXY8WKFXwKfr8fPp8P/fr141OaaHm12qzljaXNZrvvvfdezJs3D5dccklYLhFuM9t9qm6zvNDhrqurw5YtW6K+NmN179y5E263G88++yyfwrJly9DW1gaLwsRKrT16AoFAaA7MoZdmYPk73EH/ewfK8iP3DQKAjIwMXH/99aY950b9fxvtnTNnDm677TZcffXV/CGGu/v169eL9mPS2L9EDS2vVpu1vLG02Ww37ccUjpbbLC/T4TZyP6YdO3YovjbNbndvdBvtpf2YCIIgCEIGdUwEQRBEUkEdE0EQBJFUUMdEEARBJBUWv98PeZGWHufjUlHLSQP8GGMROakEAoGImDynVr9a3ZKbj+sperx8TCp6vLG2mY9JJRHuWJ7vWN18TCrJ7DbL69fpVvr/VKtbr1up7mRoNx+Xiloumd1Gexljig6luJRTq18tJ29z1P2YIK7yGo2Ayn4aALBjx46Y9mOCilttPyboeGxKaHm16tXKx9Jmrbq18rG6lfZjkvJK5yIObqUcdOTNcpvlhQ53bW0tnn/+eUyaNIlPgzEGQRD4cAitvMfjwbZt2zBt2jQ+FXrDUTpfq26t/DfffIMzzzyTDwO92G20d+XKlSguLu72PKZ4XeOJm8f0VjmEq4tlgeDKxfayDAxdPQVN+4pw4cnXMDnlFryYXxVaokROfX09nn322ahzJfwR4/69KM+aC/s+rYUfZW32fgBvelrE9udabQ56t8KZ5UHJvqKu8xvLkbHIjm1llxs/7l+BWOcc0DymcLTcZnmhw11XV4dFixbhV7/6FZ/u1lyiaBw8eBAHDhzArbfeyqfg8/lgEfeCikas7tbWVgwcOJAPA73YbbR38+bNKC8vPw3mMf0/FwMczM2NgW8qtTNkulgTa2KPXgqGS0tZU9gRXXRvHlMTc2U6WJUsokSwzRuZI9MV1a3VZsX5BoddzJ5flZBx/0rE6qZ5TOFouc3yMh1umscUSU91G+2leUwi6wuGYhYexeF3p0fcseijBoUpKcF1tgrku7Z4Q3u1ANVwZpUHF3nc6AweKwgY8VgzvK6ZqNhfjKEF1WF7xQhZ5WgWj8/IylDZE6ar7uoC8Vxar4sgCKLbJLhjqoBz8ODIzmN/MYrXADgwC/P+IT9ePx/8dTH2Lj0ExhiqUKyx2CNQvbYBrsPBlYz3Tk9FWnEpHJkuNK3OCdsrhi2tx7g/NwMAPNku7T1hGstRDHFPmaXZCK6lTBAEQeglwR2TA+6WluCbdth3SA5UMYZXHcCLDz8m7mbZPRoPAYU3pwIAclYflO0tE52ceVOwfFjwziblN5vCcvK9YoS8Chw68D4g20tGFU89IB1nH6lvHxmCIAgiRII7JgUyg2/gNzz8KOwHZgZ3s+wm6cOBla8F72y8ZRnR926R79GSXoSDjIGxJjz67kthm6HJ94phjKHtb9fLshrYRwLinjPw1NMdE0EQRDdJjo5J4pIHUDoJ8Myci6/4nAYX37sKhe7hEAQBQ1dPQckYKZOGcQUNyOW+8wl9DyQMxUrnAtyI4RiJ4HdM8r1iBEHASPGjPF3Id+Gc00B3TARBEN1EaGlpCRsu7vf7IQjCKQ81rKurQ21tLWbPns2nAY1hjlruAwcOYOXKlSgrK+NTmDFjBo4fP646Pl8JPeP6Y8nPmTMHqanBjxl5tNqs9XwzxhSHZiLG57uzsxNFRUWYPn16xONPhNvMdp+q2ywvdLh3796NnTt3iq/Nr/DMqB9iobizLAAMm/cWatMfxeACwN3yNEbjAzwz6iosxDzs2joVadbtmDbYifUAMHw+3tp+Hy4Wz21oaEBFRUXU16ah7d48DT898Hu8+aC4dzuAD57+GR5Nr8XTvzbYreM5N8pttHfx4sXIy8vDyJGR24kY7bZarQkcLi4Sy1BDteHira2t7Msvv2RtbW3dLl9++SX75ptvIuJSOXbsWNfv+x5hwwGGsPID9si+yPOk8tFHH/EPN4RWm9s0nm+1IaUsxue7jYaLR6DlNsvLdLjDh4t/yVyZYPbS4ASJkLvSwYDgNIuqfDDAwTaK7qp8MORXiVMxwByVXfUn03DxplJ76LEl2i3HSLfRXhouHidSUlLQv39/40vmLHjE754YY/D5fGhvfw+zMqMcKxalv3oIIlnxlGUgd01wEvyNYixntTRoyYP6/dwJamx9AFmu4PfGoe9/ZduoD7jr9eBx8q3VxVG7Xlc+RlyeAkGa5sGz0YmfPf1B2BSP3NX8QURPo9d0TARBdB/PzKHBzmHASNkUiwoUz/QE/40yEKm6IBcVcMAZ+h63+3g3LEe2OMBIGlxUvWg5pohTOJqyisUBTHsB5yEw+YoqUZBP8XBl05Cjng51TARxGmMvbQp2Dm31sikWdrgOMzSV2uGZOTdsxKq3LAO5awBHpcZ8Pg3kA4wGXPEEvPDC0+BBsTiFY+hMDxoOBTvFET+M/v2sHM8+YKQ0S0PPtA4iqaGOiSAIjmzY04OdhwMVGFModk0bnRg60wNHJYP7FO+WPNJUCuTALX4cvmHEKqxvTIM9O9ghSh+TH5yhdo8Ujj0LqJdmaYQcRE+FOiaCIBTIQUmpHfi/mXj8CFC9tgIAQpPPo84VjMbomzFi1jAIgoDihuDdjLcsI/hdkiBgLB5BUXr4pPdu1c/dgUkOoucSddsLpaF+0MgHxKX1Y9n2QqluaGx7EdBYbl0NLa9aXo83ljar5RPhVtr2IhFupXwyu83yQof7zTffxJYtW6K+NmN119XVwe12R31tejwe+MW9eKLBVKZbMI0tHADgq6++wllnncWHMWzYMPTp00f1ccfabq3nXO1ctbyW22jv7NmzMWHChFPa9kKpbmjk5W0WfD5fWMfk8/lgtVoVL4SOjg707duXD4fYunUrJk2ahI6ODj4FaFyEWgQCAfh8PlV/MhJLm2MlVvf3vvc9VFdXR2x7AR3XwmeffYbzzz+fDwNxuM608ma5zfJCh1vqmBYvXsynNevWytfW1qKiogLPPPMMn8IjjzyC1tZWxXb7/X7Vkat+vx9WbxUefeUgl8nArbPyMPjbb3HGGWdwOeCPf/wjrFarqc+5UW6jvQ8//DBuvfVWXHXVVXzacHffvn3jvx+Tz+cL/ZUTjYTs5dFN9Hizs7Nx5ZVXYs2aNWE5PV4z2xwPd0pKCp9KmDsayew2ywsd7rq6OmzZsiVyr7Q4uHfu3Am32x11rzSz290b3UZ758yZg9tuu820/Zii31PFSEpKSq8rgvi5Nx8/HQpBEEQiMaRj6o0IgqB6J0gQBEHEB+qYdKL0mSlBEAQRX6hj6gZ0x0QQBGE81DHphD7KIwiCSAxCW1tbQt9t1cbAJwM33HADHwIA7NmzB2eccQYyMjL4FIYMGRJ1NJKEmW0md2Ixywsd7traWjz++OPIy8vjUzFz5MgR7N69G06nk08ZzrcKw8UTgVluo72vvPIK5s2b1+15TPHCkOHiSkMckaChht1F7k1Li1wGhTGGjz/+GH369AmN35f2J2KM4eKLL8bq1cpLGpvZZnJHYqTbLC90uP/9739j4sSJUR1qEx+hYz7cN998A5vNFrVurXNjdavt8aN1bnt7Oz744ANccMEFOPPMM/m05vmxuGNpt9He9vZ2/P3vf8ell17KpzWvs7hc49yWGHHbT0OJROzl0V30eIcNG8bGjh3Lp3R5zWwzuSMx0m2Wl5E7KlruTZs2MQBs27ZtfMpwdyztNsvLEuRW7jaJCOg7JoIgCOOhjkknNPiBIAgiMVDHpBO1z2wJgiCI+EEdUzegOyaCIAjjiVhdXO/qr9FgjMHv98Nms/GpEGor06rVDY28HrcS8npHjx7Np8EYw9tvv43+/fsjMzOTT+Piiy/GihUr+HAIM9tM7kjU6oZGXsttlhfk5sOArO4dO3ZEHTnr9Xqxc+dO3HnnnXwKjDFMmjQJ1113HZ8KocethFpeq91meZEgd9T9mKCyD4jWUEOtvNoYeKPdSsi9v/71r/k0AIQ6pmjDJ4cMGYLnn3+eD4cws83kjsRIt1lekJsPAzK32+1GSUkJnwYAHD16FEOGDOHDAIA5c+ZE7bQk9LiVHrtWu9TyZnmRKDc/ZC9ew/2USMRQw+6ix2u329lNN93Ep3R5zWwzuSMx0m2Wl5E7KlpuGi4ejpaXJcit3HWdRthsNtVevE+fPli4cCHuv/9+PgWLxaJ62wsA3/nOd/gQQRAEoYDyu/FphFVlx0WIHdett94adbkiQRAUZzlLKM10JgiCICKhjkk3NSieXsMHCYIgiDhzmnVM7Tje0oLjrbLIFy1oaTmOdil/vB3tx1vQcjwYkR2JT76Ikms/jhZZne2yXOhnn+jlqyQIgiAiOI06Ji/Kc8bD9UYdlv8mF+WNgOeRn8C5og51G+7HddN3AajB/fbrMPfFOrh/MxLFu7kq3igJz7Wuh/NXc1FTWwPXuPFY3gLUzZmCilYArRVwTq8BWqvx21//Fu7aGswddxeqj3N1EgRBEGGcPh1T83rUjShBSf44FK1eh/tTAft9bhRnAu2t7Wj54svgcVf+FiX3jUPR5Gx88jlXB58bmIOn/jIOKfgSxz8/juOtwHWOc7DuxRa0b6zCBfk5wDY3atJ/jAuQgusyD6J8bQtXKUEQZlBbW4u1a9firLPOwssvv4y6ujr+EMIkhJaWlrB5TH6/H4IgKI5SU1tuPRAIgDGmOhigtbUVAwcO5MOAwe4zji3Hnf93I9YtzQYaa1CTkgHv9PuBeU9hfGod7p+WAvdqwFkAuFfnABudcMIN9xiphurI3HnFGL0+B3+b+RO0Pz8F1be6UZTuwdyC5Wj3pcBZUYLsf96F3MaHsfzW/sB/vDj8P1fgB5b/hh6XkW2Gic83TlO3WV6Qmw8DCu5du3ahpKQE77zzTtixAHD11Vfjj3/8I6644gpD3HJiabdZXiTKzY8lj9c4dCUSMQY+Ol+yqruvY44/Pswcv5jCqr48waru/jGb8rSbldydw+xj/8Y+YVXMkV8VPLzSwRyV8vOj5A67WM6NDzP300XMcUU2u782mG4qtbO0Px4M/tJ5kLnGXseKSl2it6tGZnibzXy+T0+3WV5G7qjw7ldeeYUBYBdccAFbtmwZO3z4MAsEAuzo0aPs8ccfZ9/73vcYAPaPf/wj7m6eWNptlpclyH0adUzJidFtNvP5Ph3dZnkZuaMid3/44Yds4MCB7PLLL2cff/wxY1HcXq+XXXrppey8885jn376adzc0eDdcrTabZaXJcgd/X6LIAiil1FeXo7W1lY8++yzuOCCC/g0IO5M/de//hWff/45Hn/8cT5NJAjqmMTFA9VgjOHzzz/HsWPH+BSg4/yAuH4UQRDmsWHDBowZMwaXX345nwrjmmuuwejRo/Haa6/xKSJBUMckrnjr9/v5cIj29nb8+te/xh133MGn4Pf70dHRwYfD+PxzfngfQRCJpLW1FUePHsXIkSP5VFRGjhyJgwcPav7RSRgDdUw6EWgHW4LosUivXbWlx6JBr3lziLrthdJQP2jkpY+slPLQsWS62rlqeT1uJdTqhZj/6U9/inPOOQfV1dUROWh4zWwzuSNRqxsaeS23WV6Qmw8DXN3Dhg3DZZddhldeeSVqXk5OTg4++ugjNDQ0RM1L6HVHQy2v1W6zvEiQO2KjQJ/Pp7qoqdpGT9CRV9tkymi3Enq8Use0efNmPq3pNbPN5I7ESLdZXpCbDwOc+8EHH8Rf/vIXvPPOO7jssssAhbp3796Na665Bg899BDmz58fkZej1x2NaG45anmzvEiQ22K1WiEvkK2YHa1AXI07WoHY2/FxeVHLG+1WKnq8Fosl6jF6vGp5PW4+Js+p1W0ld9RipFstZ6TXSu6oRe4uKipC//79cd999+HYsWOhvPz4Tz75BNOmTcN3v/td/OEPf1Ct29oNd7TCu/mcWt1qOSO91gS5o99TEVGhz5sJoucyZMgQrFixAm+99RauvPJKPPfcc/jss88AAJ988gmeeuopXHnllXjvvffwwgsvKN4VEMZDHZNOBBr8QBA9nttvvx1btmzB+eefj6lTpyI1NRV9+vTBhRdeiN/+9rdITU3Fzp07cfPNN/OnEgmEOiadCAqfmRIE0bMYPXo09uzZg61bt8LpdOKss87CXXfdhe3bt2PXrl342c9+xp9CJBjqmLoB3TERRO/huuuuw4QJE3Ds2DE4nU5ce+21/CGESVDHpBO6YyIIgkgMQltbW0JvA9TGwCcz1157LVJSUvD666/zKU3MbDO5E4tZXpCbD+vi9ddfx9ixY7Fp0yb8/Oc/59OaxOJu/vNILPxhPVbk8BltYvHGSkLc/Aqv8VodVolErEzbXfR4r776avbzn/+cT+nymtlmckdipNssLyN3VLTcGzZsYADYtm3b+JTh7oNLhnNb63Sh5Y7Fa+bzrddNH+XphD7KIwhCorpAgCAIGDx4GqoBoLEcGUIwJggZKG8EUFUIm80mxpzB43jWOoP5rHJ40VWPzWZDSsoIlDcGXc6NwcNDP3uf6fIVRK25R0MdUzegwQ8EQaCxHMUNLjQxhpbVQHGZF8A4VAX3t0NTKVDvEY+dtFGMNcAtdi5yKuAEYwxV2cuxvhGhenw+Hw4tDdZjz7Kj4ZAXQDXcaxxwjgG2PlaBKYdFX1ZxqOPqLVDHpBOax0QQBADAUw8UjEMaAPz6aRyckQakA+uzgncwQ2dKvRJgzxwuPzMCx63cF0xiPTabDcPnHAIApI2dAqxeD+9GNyrynciBF//edxjFw7p8wY6r90Adk07oozyC6Pk0Nzdj5cqVoVJTUwMA2LRpU1h8+/bt/Kld2EcGOwqIH6kVVKO6IBfYELyDqcrnT9CPVI/P58OrDjGYPg5TsBxz1zbAnmUHkIYfZA2DS7xjYowFO8deBHVM3YDumAiiZ7Nq1SpMnjw5VP7yl78AAP70pz+FxXfs2MGf2kV6EaoKlmOoIGDwjyswZV4Ocm7NDt3BuOE45TsYqR6bzYaXMFGsJw3jCoCKNcCUscEOaPR0B5aLPkHo+g6qtxCxurje1V+jwRiD3++HzWbjUyHUVqZVqxsaeT1uJdTqhZj/5S9/CQDYuXNnWE6P18w2kzsStbqhkddym+UFufkwEKXu5ubmsPzWrVsxdepUuN1uXH311aF4ampq3N08anktt1leJMgddT8miKu8RkNtPw3oyKuNgTfarYQe7+jRo8EYi3qLr+U1s83kjsRIt1lekJsPAzrc//znPzF27Fhs3rw56jwmI91adavlzfIiUW5+LHm8xqErkYgx8N1Fj/eaa65hP/7xj/mULq+ZbSZ3JEa6zfIyckdFy23mPKZY2m2WlyXIrdx1EWHQ4AeC6PnEZfADYTjUMXUDGvxAED2buAx+IAyHOiYN1q1bh7vvvhv//ve/0dTUhEmTJuHll1/mDyMIogdw5513wuv1hsqzzz4LAHjxxRfD4vPnz+dPJRIIdUwKeL1e/PKXv8SECROwceNGDB8+HJdeein++c9/YuLEifjZz34Gj6drIh1BEMlPampqWJFGlw0ePDgsTpgLdUxR+Oyzz3DDDTdg69at+Mtf/oKWlhZs374dNTU1OHbsGJ577jm8/fbbuP766yOGnxIEQRCxITDui5OTJ0/CZrPBarXKwyFOnDiB/v3782EAgN/vh8/nQ79+/fhUiE8//RSDBg3iw0AC3Erw3kmTJsHtdmPTpk24/vrro3pra2vx85//HDfffDNefvllVa+ZbSZ3JEa6zfIiDu6Ojg4+DOh0q81t0XK3t7cjJSWFDwMJcFdVVcHpdOIf//gHrrnmmrCc0e5Y2m2WFzL3WWedxac03XqvcaGlpSWsY/L7/RAEQXGseWdnJ/r06cOHAXEMOmNM8UEBQGtrKwYOHMiHgQS4lZB7jxw5gp/+9KeYNm0a5s2bB6h4y8vLUVZWhk2bNmHEiBF8OoSZbSZ3JEa6zfIiDu5ly5bhjTfewHnnncenNWGMmTZyNRZ3e3s7fD4f+vTpo/pmrEQs7lgwywvxWjz77LNDA0fk6LnOdF3j/FjyeI1DVyIRY+C7i9z717/+lQFge/fuDeWVvEeOHGEA2COPPMKnwjCzzeSOxEi3WV4WB/eSJUtYVVUVnyKIMDo7O9m1117LhxnTeZ0pIb/Go3drpzH/+c9/AAB2u51PRTB06FD069cPH330EZ8iCIIgThHqmDgGDBgAAPjqq6/4VAQnTpzAyZMnQ+cQRG/h5MmTioUgjIY6Jo7s7GwAwBtvvMGnIpCOueyyy/gUQfRoNm5+E80ffhIq3g8+RvOHn2DtRloRgTAe6pg4brjhBlxyySV47LHH+FQE5eXlGDRoEMaNG8enCKLHc953z8Lg887B4PPOwQXnfxeDzzuHP4QgDIE6pigsXLgQ77zzDu644w60t7fzaTDGMHnyZOzcuRMLFy40bXQMQRiF3+/HK6+8gl/96lehMnv2HPj9wdWjCcJIom57oTTUDxp5rSXPoWPJdLVz1fJ63EpEq7esrAx//OMfceGFF2Ly5Mm44oorIAgCGhoasGrVKjQ3N2Pu3LmYM2cOoOE1s83kjkStbmjktdxmeREHt8vlwuWXX46cnBxUrHsdn//n3xHftX4/fQR+47gpLEacXvh8PowePRqbN2/mU7quM6W8/BqP2CjQ5/PBarUq3gWobfQEHXm1iWFGu5VQ8r7++usoKyuLWGn4pz/9KYqKipCXlwfo8JrZZnJHYqTbLC/i4C4vL8fIkSORk5ODNX+vRtr/fA8WS/jxBxo/xt35N4fFiNMLn8+HX/7yl9i6dSuf0nWdqV3DUt5itVohLxC3eODj8jwfk+csFktEXF7U8ka7lYqSNycnB9u2bUNjYyNGjBiBESNG4IMPPsC//vUvjB07NnSullctr+SW5/mYPKdWt5XcUYuRbrWckV5rHNwW2V+yfr8fh5o+wsHG/+Bg439wQPzX7/eHjiFOb/hrSO91xsfkOekajn5PRYTR2dmJvXv3Yu/evVH/SiCI3sbEsb/CpFtvDJV88d/CiTn8oT0Ob1kGhILqiJ+rCwQIQrBklHmDB290hmLOjQDgRXmWgIysDAiCE9VK5xExQR2TDqZOnRr6edWqVWE5guiNpKSkKJbeSTXcawBHJQNjDAdnpAGohjOvAa7DDOywCw15wY4IAFBQBcbcyIl6HhEr1DFp0NzcjJ07d4Z+3759O1auXBl2DEEQPZ0clJTaUZEn3v0UVAONHjTAg+JhAoRhxfCgAZ7G4NHZw6UOKMp5RMxQx6TB5MmTMWTIEIwaNSq0VwvdNRFED6fBAy8Az76uPdXSZhwEYwys0hHMp9uRDXvwjokxMHYQRelhtUQ/jz+A6DbUManQ3NyM7du3Y9KkSaFYYWEh3TURRA8mbewU2PcXY6ggoLhBWhMz+N2RIAgQ8ipgLxiHNOSgpBTBOybFu6Fo5xGxIrS1tYUNFzcatbkWycbUqVOxc+dOeDwe3HDDDTh69Cg8Hk9ogddNmzZhyJAh/GkRmNlmcicWs7yIg7usrAxXXHEFcnJ6/gAHwjikeUybNm3iU/GDX3o8XsuWKxHr0vxK6HErEc3r9XoZALZgwQLW1tbGRo0axVJTUxljjC1YsIABYCtWrNDlNbPN5I7ESLdZXhYHN217QeiBtr0wkYULFyI1NRXz58/nU5g/fz5SU1OxcOFC2lqdIAgizlDHFIXm5masXLkShYWFfCpEYWEhmpubsWPHDj5FEARBxAB1TFFQu1uSkO6aFi9ejKNHj/JpgiAI4hShjolDz92ShHTXJJ/nRBAEQcQGdUwceu6WJKS7ppKSEvquiSAIIk5Y/H4/5EVaepyPS0Utx1hw5Dkfl5dAIBARk+fUzlfL6XErFcl75MgRrFy5EgUFBWF5iHswRau/oKAAR48eRU1NTUROXj8fk+ei1SsVtZzSY5IXckcWI91mef1xcEvHEIQe+GtI73XGx6Qiv8YFJv0mcvLkSdhsttBqrwBQXFyMuro69O3bF4wxCApLmkN8A1fL+/3+sLrlaJ0ba14J6Tyfz4fjx4/je9/7XkT+22+/hc/nw9lnnx2WA4DPP/8cZ555puI6Yma2OZHub775BuPHjw/tUfXpp59i0KBBsjO6iHadyTlx4gT69+/PhwGxTT6fD/369eNTIcxym+VFHNy/+c1vsHv37qhz8/j/ax6t6+yzzz4DgKiPT6turbyWW+3cWPNmuc3yQlzU2mq1Rv0KQ891puca19UxTZgwAX/+859xwQUXyA8liDDefvttvPjii3jiiSeAOLxR6rmAlTDLbZYXcXCXl5fjsssuw4033hiWi4d71apV6N+/P/Lz8/m06e3uiW6zvADw0UcfoaCgIOqI5Hi5dX3HJAgCbDYbFSqqxSruCUT0TKS9cPj/13gUI+umkviidkcVD7r9LnLy5El0dHRE/ddPm4gRBEEQMdLtjkkQBBw41ISD73vD/t25ay9/KEEQBEF0m253TBJDh1wQVgiCIAgiHnS7Y+rs7MSJ9pO4/faJuH3iRNx++0RMnDgRHR2d8PtpuClBEAQRG0JLS0vYqDy/3w9BEMK+xJ46dSqeeeYZXHDBBfjyy+Oof/cQ1r9SAfnXX9ddfzNu/OVP0b9/9CHTRO9nz549eOGFF7BgwQIAQGtrKwYOHMgfBihcZ3I6OzvRp08fPgyI820YY4ojf2Ci2ywv4uB++umnkZmZidGjR4fl4uF2u91ISUnBbbfdxqdNb3dPdJvlBYCvvvoKhYWF2LBhA5+Kn5tbeTzqsuUTJkxgH3/8MWOMsZZPP2Mbq7exXbv3sF273w79++Ir/2Strd+GnZcwKh0McLDuLNjfVGpnyO/OGfHDTLeRvPXWW+yBBx4I/R7rNgxKJGILCCW03GZ5WRzc0be9aGGll4IBXcVe2sQYa2KuTOlnxlpWj2MAmKOSO110P/PMM2zVqlV8ijHWzh7JiHZeFXMAbO1B49utRCKecyW03GZ5GWPsP//5T/Jte9HZ0Yljx7/G+0c+xvtNH4X+PXmyg0bl6SRtxkGw1bQZG9FzGL70EBhjYIddwMxclDfKko3l+FnBethLm+AeI4vroh/+8HbbKZxH9Ga63TENHHgGbr7xWtycc23Ev4ld0qQaTiG4pXHGnIau8EYnBDHu3CjGGsuRIcYEwYmwDZIby5EhZIS/0MLo8giy47xlGRGx6gLpOAEZZV7uuK6tmb1lGV3bNMseb1g+KyP0mKV2RKuLIBKKpx4eZMOeLgXWwzmsGJj3Fg7OOJVNxU/iiSsGhK7x0GsoqxiyVzVxmtHtjunss89SLYnCW1aMikwXmhhDVYEUrYYzrwGuw8G/7Brygp2Qd8NyeMRjGXOj617FDeewYmRXHkRR6IXGsdGNCjhQxRgYE49rLEfuzOxgrDIbxWPL4UU13GsARyUDY0x8kXqxfrUH9tKm4F+b/F1SYzkypMfLquBYk9vVmWIKqhhDVT5QsbZauy6CMJBDc4YHO4y8CthLS0KvIc/MYlQAOLzo0fA/+E6FxnIUr7EHXw8bpvBZ4jSi2x1TsuDZ5wGy7UgDkDY8Oxhs9KABHhQPEyAMK4YHDfA0AmkzXHDsL8ZQ7g4HaypQIa80GmNK4MqsQK787sVTDw/EWF4FsL8eHuSgpNSOijz5HU0aipY64Jk5VPwrsBzB+yiRsL8+c+DMBxoOiUeIbbNn2cWDNeoiCAMJfZQX+qNLJL8KjFVhHNajWPyU4JSRvx7S7RBf1cRpSI/tmOxZdqDBAy8A7yHxpj/djmyIf3HJ73CQAzdjYKwJrkwP6j1iJflVYJUOVIh3VtFJQ9G+YH1VUsdhHwl76C6q6y4sbcbB4O+VjtBjwxh36LN5+/56SGoAYj3BzhPiHVf2cJWPQ9TqIggTCP7hlINZ84bBw3/31F3kr4dGD32UdxpjOXnyJOQlEAjA5/OFxVj4Oq9JQdqMKrgQvAvKXS1Fc1BSiuAdk/x7mND3OENRvN8Bp/yLVvGOSPGvPdn3U7lr7JgyNg1IL4Irv+suKvh9khflWaI3rwL2gnFIk39mPqwYnnyn7GNEAOlFqAo93lxU5FepfgmsWleSEAgEQteN3+8Pu460rjN5gbj8VbTS0dER5olWzHKb5T0ZB7fP50NnZyeX64CfAWC8uwM+BjBfcDmy/5k6DxPhQfH81yLqDgQCqn4ACHSexMmLfosNS1nw9XDL38AA+DqNbzcfk0oinnM+JhUtt1nek6Jb6Zh4uQWfzxfW6/h8PlitVgiyRfpuv/12/OUvf6HVxQlV9uzZA7fbjfLycgDAZ599hvPPP58/DFC4zuR0dHSgb9++fDiEVt4st1lexMFdXl6OESNGRKwuLuVjca9YsQIpKSkRq4t/9dVXmDlzpuK8mVtuuQWjRo2Kya3VbrW6tfJmuc3yAsDHH3+MSZMmoaamhk/FzW2xWq2QF4jr4cljSpJeRdjIPamofcRHREN+7UgrSkcr/LF8ARARk+fU6raa6FbLGem1xsFtsVii1hEPt1IdZ555JubMmYP58+dHLT/+8Y+jnicvank97eZj8pxa3VYT3Wo5I71W0a1Uf7zcPfY7priTXoSDoe+Mwr87IgjCGPr06YMLLrgAF154YdRy5pln8qcQpwHUMREEQRBJBXVMBEEQRFJBHRNBEASRVFDHRBAEQSQVQltbm+YkpUmTJmHZsmU0XJxQZc+ePVizZg3+9Kc/AQCOHTuGc889lz8sIZjlNsuLOLhLS0tx2WWX4frrr+dTmmi5X3jhBfTr1w9Op5NPxYyW20jMcpvlBYBPP/0UBQUFeP311/lU3BAYN3v25MmTsNlsoeF7APDLX/4SAHDWWWeBMaY6fFwr7/f7w+puaWnBgAED8J3vfEfz3FjzSmidF2ueb7McrXNjzSfSffToUVx44YWorKwExAt40KBBsjO6iHadyTlx4gT69+/PhwGxTT6fD/369eNTIcxym+VFHNyLFi1CbW0tBg8eHJYLjlBlsCjssQOxfqXHFggE8N5778FiseB///d/+bTmNRqrWxCnf0Sjp7rN8kK8VpqamuDxRK49o+c603ON6+qYxowZg5KSEgwaNAjt7e1ISYm+GaDf74ff71edQPX555/jvPPOC/3+0EMPobCwEHa7HR0dHbDKxrTzxOpWwmgv32Y5vcm9d+9erF+/Hs899xwQhzdKPRewEma5zfIiDu5FixZF3Sgw2v81j9Z19tJLL6F///649dZb+XS3rzMeLXc8r3Ees9xmeSHeTEybNg11dXV8Std1pusa5/ZqirrRk3yjQL0bPSnBb3B17733svfee48xBbecWN1KGO3l2yynN7lpo0DzvCwO7ugbBcbHrbxRoPntViKZ3WZ5WbJuFEgQBEEQRkIdE0EQBJFUUMdEEARBJBUW6csuqQTE7dHlMcZY6Gc+xx+nlveL9fPnSLFobnlRy+lxKxWjvXyb+Zza+Wq5ZHMHAoGwayWRbr6Y5TbL64+DOyBuT8Hn4uVWOkat7ni5+bhU1HLJ7DbL6xfrl7/O+Zza+Wo5udvi8/kgLxBHdchj0oOQ8vw5UpEeGB/n65L/Lj8+mlteYnUrFaO9fJvlpbe55bFEu+XFLLdZXl8c3NKbHZ+Lh1utDrPbzcekksxus7w+0a3kj5cb/MiIaKMqoo/K28ccAIOs3PGqj7W3v8ocAHNUBo9qKrUzwM5ch4O/86NJlEfl/Ys5ZOcxyV3pYICD7esKM6ZzNIkS0dosR+9IEiX4NsvpTW4alWeel8XBbdaovINLhjMAzFFZxRyZLtYkyym5mw53HaXl1mq3EkpuOWa5zfKynjIqz1EpbhFR6cCLt+Rjkzy50YmhMz1wVEpbnHeHn8Id2hqdIIjeyvsHANdhBveYHLj3FSGNP4BnoxO5G/gg0ZuIuWOS8B5qAC7NxnApcKgcGXkVcFQy1e3ClXkTTiED5Y0AUA2nIGDAgAHImNPAH0gQRE/lKy/GVhxC8TAnqlENZ1Y5vKiGMysDGYKA/H948fjlKeJKBk5Uw4vyORXwzBwK50a+MgDwojyra7PPEY81B8MbnaFYaAPQjU6MvGtycIPQrHJUl2UE8wXB7UG9riykpATd0V2EUcTcMVXkBf+zh8704I4l05EqxWcWwwOgYk45vNw53cVbVoyKTBcOtrWhqoDPEgTRYzkrDRscw+E6zG3KuT8bLsawZvgGrLzsVfF7DTdykIaipQ7YS5tU/uC1w3WYgbEqjHC/Ci8Ar70k9N1IVX4DPI3BIw/tHYEqxlCVXYxiVIGxKjjWuFGNasxbMxmH2tvBWBNGznHiMK8hDCPmjin0UR5jWHNTV9xe2gR22AX7/mLMjfGvDc8+D5BtRyqAtOHZfJogiN5G5kjYASB9Oh7FLeKdjvQJihbZsHNfAaSle+AU75hy13TFhztvFj86tGPK2DQAdozMBNDowd4DMzE8JQWCMBTF+xvwxX+7ziOMJeaOSYns4WlAehFc+UBFnnjrfIrYs+xAgwfN0keGBEGcNtzwQrv4PXY2lm84lc9fvCjPcsPJGBhrgiuTz0ch3Y4Rl5aKd0wMjB3Ej7/LH0QYhWEdk0TOPBfsqEBx2alcUEHSZlTBhWJkDBiA3NV8liCIXkvjYxghfs8j5AGuGWmAfSSg+B1TNNIwrqABuYIAQchFfTZQH7kwNkcOFuWvEO+Ygt9L0Ud5iUNoaWkJzmoS8fv9EAQhbNnzu+66C0uWLMGgQYPQ2dmJPn36yE8JERAnXimtLAsAra2tGDhwYOh3+ericveyZcvw9ddfh50bCARCjystLQ133HFHWE7LrUS0NsuJd5vl9Ca3tLr4okWLgAS7ecxym+VFHNxPP/101NXF4+F2u91ISUnBbbfdxqdNb3dPdJvlBYCvvvoKhYWF2LAhcmhk3Nz8WPJo49Cjz2OKRM8YeH78vdI8pvfeey+i7NmzJ+x3OXrcSkRrs5x4t1lOb3LTPCbzvCwObrPmMZ1qu6vyw+dRAmDID3/8etqthJpbQqvdRrnN8rKeMo/JKLKysiLKpZdeGvY7QRCnLzmrg4OuWlpaEPweiIGtDhvbR/RQkrZjIgiCIE5PqGMiCIIgkgrqmAiCIIikgjomgiAIIqkQ2tvbw4aLy4dkSzgcDjz22GMYPHhw1LxEQNyLQykPAMeOHcO5554b+v13v/sdpk6diszMTNW6ofDYJPS4lVCrFxp5PV6+zXLU6oZGPtncb7/9Nl5++WWUlZUBCXbzmOU2y4s4uMvKynDZZZfhhhtuiMghRveKFSuQkpICp9PJp1UfWzzcaueq5ZPZbZYXAD799FNMmjQJb7zxBp9SrRsaeblb8Pl8YR2Tz+eD1WqFIAih2LXXXovU1FQMGDAAfr9fdYy7Vv7EiRPo379/6Pdt27YhNTUVaWlpCAQC4mS2Lrccrbq18koY7eXbLKc3uT///HOcccYZWLVqFQDgs88+w/nnny87o4to15mcjo4O9O3blw+H0Mqb5TbLizi4y8vLMWLECNx44418Omb3vHnz0K9fP8yfP59Pa9atlddya7VbrW6tvFlus7wA8PHHH2PSpEmoqanhU3FzC4yJ2waKnDx5EjabLewN5/rrr8fs2bNx3nnn4eTJk+jXr5/8lBABcZMnNTHf0y9atAh33HEHhg0bho6ODthsNsUeNVa3EkZ7+TbL6U3u/fv3o6qqCqtXB5fn+PTTTzFo0CDZWV1Eu87kqHWofnEzO6XHBhPdZnkRB/ef//xnjBgxAjk54UOu4+FesWIFBgwYgIKCyFWYzW53T3Sb5QWAjz76CE6nE9u3b+dT8XPzk5yiTZAyY4JtNGJ1K2G0l2+znN7kpgm25nlZHNw9bYKthJZbq91KJLPbLC873SfYEgRBEKcn1DERBEEQSQV1TARBEERSQR0TQRAEkVQIbW1tYaPyouF0OlFeXo7BgwfzqW7DjxL7/e9/j6lTp+LSSy8NO643wbc5kSTS/c477+Dll19GaWkpkGA3j1lus7yIg7u0tBSXXXYZrr/+ej6liZb7hRdeQL9+/aLOY4oVLbeRmOU2ywtxRGBBQQFef/11PhU/+JER0UZVJNOovKbDTXyYsajuJtZ0WPYrz+Em1sQYY5UONnzpIU2vEpHeSPg2y9HTZiWSzU2j8szzsji4zRmV184eybidRVqDRHVLr10RLbdWu5WI6uYwy22Wl9GovChUT0Zu5N5UUfGW5WKu4i6VXpSPnQsPAIxxY+/0VP4AgiCSEtlrl+i1JHHH9DHKs4KrEgiCE9Xw4ol5L8MjbqlcXSDlBAgF1QCA5scKkZElQMi6Cw/M9KAiLwPljXy9ADbORfH+CuRmlcO70YkRjzUD/8hHRoETGYIAIasc1WUZYXWjsTyYk8cIgogfG51dr2nBiWoA+Ec+UsTtzTPKvOGvXf58RNaxCQh2ZqH3ErEeeFGe5cTkuwZAEAQ4N1bDKQgQBOk9oxr5NlvQreQiDCN5O6YPa7A8u0rcAMyNHKThD4tuh720Ce4xXtjniRuDsSo4GjzihbMXKGgC2/c3PF5qh6PyIIrS+YoBjCmBK9OBqn1FSJOFPQ0jUcUYqrKLUYyqYN1r3HgdQPWi5ZhyOOhsyirG3J2yEwmCiBmvvSS04V9VfgM8jcA/X9mLRw+0gzGGgzPSFF+7YeQH3zeaShvwUlUwNG6D+H5x2AXsk+63KoBxbWCHXWjIc8PJGJpKgeUbvPCWFQOv+tDe3g62tB65ZdQ1JZLk7ZgumgQXcsW/cvg7nzSkeaS/jHJRIctkD1e8XDWxF4wTL3Y7poxNA2DHyEwAaIanwYPiYcG/uIbO9OD95o/50wmCiIG0dI941yIgd00wduPcyVh5afCOSe8nFfYsOxdJAzaIn4AMK5Z9DOjARGn1pXwncgCkDc8GAHj2efDiLeIdU14FPKHOjEgEydsxybZOZpXZWL5B9hdLYzky1jpDfwHxl2H8SYU92w6XeMfEGMPaggv5gwiCOGW8KM8K3rUw1gRXphhOn4697e3BWIM7+PFed/lHPnIhfvpS6eCzUbFn2XGHdMdEW7YnHIvf74e8SEuPy2OMsdDPfI4/Ti3vF+vnz5FiYe7m1V3f6eQxlE6/GPjhCGDmUDgO3IzJ9eLd1C3vYAR7Bx7RzQLBei/+wQhU5GWg7P3Ix+D3X4wfjqhAbmYZGgMMYEEvxHMDDAhIj1es9/qHJ2O5eMckCAIe3t71+LvbZj6ndr5aLtncgUAg7FpJpJsvZrnN8vrj4A4EAlHriJdb6RgACPgvxs2TGpArfgryzgjgnQN+VBeKdy3CUCyftBDXy1+70dzBF6/4M8BYALjJgREzhwZfu39nuKP+ABr9Xa9tvz8AMLEO8fyLp5cC0h2TICDjT40RjzvCHSWn9ryp5bSec7O8frF++eucz6mdr5aTu6PuxwRuPw69+zFBY78NRBl/z+/HBJW9QLTq1sorYbSXb7Oc3uTu7n5MiKObxyy3WV7Ewa20H5OUVzoXOtwvvPAC+vfvH3Uek1bdWnktNzTarZSDjrxZbrO80LEfE+Lh5seSRxuHnkzzmJSI7m5irkwwILzYS8PnQsXfGw7fZjm9yU3zmMzzsji4zZnHdIrtPuxidu51DdiZi5u7qKfdSii6ZWi12yi3WV5G85jiQRqK9nV9LySVgzNOfYAEQRBJQHoRDoqv55aWFvG1rTAKl+hx9PKOiSAIguhpUMdEEARBJBXUMREEQRBJBXVMBEEQRFJBHRNBEASRVAgtLS1h85j8fj8EQQgba37XXXdhyZIlGDRoEDo7O9GnTx/5KSEC4sQrq9XKp0K0trZi4MCBod+nTZuG8ePHY/To0VHdcmJ1K2G0l2+znN7k3rt3L9avX4+7774bAHDOOeckzM2TyHbLMcuLOLiffvppZGZmYvTo0WG5eLiffPJJ9OvXD9OmTePTpre7J7rN8gLAV199hcLCQmzYELnVQ9zc/FjyaOPQe+48Jn0Y7eXbLKc3uaV5TIWFhSw1NZUVFxczr9cbdoyEXvfRo0dZZWUle+mll9i//vUvxhTcPIlstxyzvCwO7h41j0mGllur3Uoks9ssL6N5TERPZf78+Rg1ahRcLhd+8YtfYOHChWhubuYPU2XPnj3Izc3FkCFDkJeXh4kTJ+Kaa67Beeedh5KSEv5wQsbKlSuxcuVKPgwAWLhwoWKOIJIF6piIuJOamooVK1Zgz549KCwsxIIFC7rVQVVUVODaa6/Fv/71L8ydOxc1NTV4++234Xa78aMf/QgLFixAXl4eAuLyJ6eCIAh8KITaxxhqH1MAQL9+/fhQCIvFouqNF6tWrcKqVav4MCB2Wjt27ODDBJFUKL/CCCJGLrroIsyfPx9erzeigzp69Ch/OACgvr4eTqcTP/rRj7B//34sXrwYv/jFL3D55ZfD4XBg48aNWLZsGTZv3ozJkyfzp+tGrXPp27cvHwphsVgUPyMHgLPPPpsPhejTp4+qlyCIIPQqIQwnNTU1ooP69a9/jUWLFkXcQZWUlCAlJQUrVqzARRddFJaTuPfee/HQQw9h9erV5v313/wUip/pmZvH8c85QSQb1DERCUPeQeXn52PRokVhH/H997//xYYNGzBt2jQMGTKEPz2MBx98EACwdu1aPqUfXzuOt7TgeHv47y1SoPU42tvbcbzlONp98hODx37S2o72L1pwvLUr3H68BS3S8e3Hu+qW/dx+vAUtX0gJgiB4om57wX/coHfbC+kzf6U8oizXzm97oXauWl6PWwm1eqGR1+Pl2yxHrW5o5JPNLW17MWbMGOzcuRMnTpxA//79Q3n+47ujR49i587gHvVDhgzBtddei9WrV2Pt2rXIzc3VdI8aNQr//e9/8eMf/5g/BCdPnlT9vueJpTdhxh2bkf376+BZUYOcvxeh4ca5SPm9EykbXfBOq8P9taORu+86zP3VJ1j2YjbWV0/BYKmCxnKMHlOP6+bk4pOn3cjeUAXnLieu25aL4isP4qmNaXA/1o6ip38C99JseOaNR3XBOoz753gUfz4ezjPXYTlK8NqDw+CX7Yek1WalPGT/17/+9a8BAJs3bw7lpLp/+MMfYsiQIWE5Ka+07UV33NEIBAJYsWIFUlJSur3tRTzcaueq5ZPZbZYXOra9UDtXLS93Cz6fL6xj8vl8sFqtYV/S3n777Xj88cdxwQUXoKOjQ/UzeK38Z599hvPPPz/0+/3334/77rsPmZmZUd1ytOru6NiIKVcexqJ3p4tbpEfibfQiLR147LJ5sL+7BjcqtFmOtlc9z7dZTm9yv/3223jxxRdx1llnYdGiRWHH6mHQoEH49NNP8frrr+NnP/uZpjs3Nxfvvfcejh07xqc1+WjNHfid9QWsuyMFaG1H+8AUtDfvQt0eLzwvzkX95CaUHMrF8l9UoeQKL8oL1mPc6qKu66qxHLkvXIeqpdnwljmxfqwbRd8/jobaGngba1CyNg3rapyoGVeCjPVTUOWow28rcuD+2W/R/vspsOMTrFvkwZi1v8X5H38MaMzxQJQ8/5Hc119/je985zsoLS0FAMycOTOUk94QHnroIZx77rm4/fbbZWcG55/s2rULDz74IG688cawHKL8X/NoXWdSx5Sfn8+nNevWygfd34qv6UXwXDYPY95dg2EGXOM8Wu02ym2WFwA+/vhjTJo0CTU1NXwqfm5+LHm0ceg9Zx7Tq8yR6WLhuy3JqHRE7MXE4uLtXpvl9CZ3d/Zjev/999m1117LALDU1FS2YMEC5vF4GAD2xBNP6HJ///vfZ+PHj+fTjGm429vbGauewsZVnGCMMfbJnq3sYOPf2Lixf2MHP/mSnVjvYI5KxppKHeL+Pk3Mlc9dV4ddzCFeS9JxdQ9ex4pqmtiX3xxkJXcEjz9RMYXd/+AU5qg4EaxnzP2s6pNP2CefNLG62iY25Z57IvYLM6ucc845vWAeUxNzZTrYv8Xf4n2N82i12yi3WV5G85iA6gJpK/MMlDcCQDPKs7q2N88oC3757C3LgM1mQ8rls9DAVxLCi/I5FfDMHArnRi/Ks5yoRvDfwt+kwGazwbmxGs4wX/AxDBgwICxGnDrNzc34xS9+gR/+8Ic4evQoFixYAK/Xi/nz52P48OGw2+2oqKjgT4ugsrIS//nPf0IfW3WbXxXhJ2tzUTyvGM6lDcC5F+Ccz3eh5o2n8NvnG9De0sKfocngi1Lg2bYL7nklWOfxogVAyq3j8OVfvkTumBQAaZhydzvKZ7rhLr0Lrj3t+M2dd2LFihVYsWIFnn32WWzbti1q2bp1KzZv3hwRl5f169fD6/XiRz/6EX70ox/B6/WGyvvvv4/GxsaoOa/XC4/Hg+LiYr5JCaH5zyNDr2nnxmDMW5YBZ4Ez+Lr+zabQe4H0mu96bxAw+Hdbg6/vLCeqw6smeip8rxWtxzPljumDNcyeL/31VsUcmS52sO0gc2VKu1QGY03iv4d9PtZ+4FFm13XHFPyrqkrc4XbiunbmO1TK7HCwKsZYU6k9eNxhF7PnV4ltDnr4v1NOpc1yoj3fcuL9fMuJt1vtjsnr9bJRo0YxiHdIc+fOjer+61//ygCwhx9+mE+F8Hq9bOjQoSw9PZ1PhdBqdzLS3eebR2rzqFGj2KhRo8Jy0v91tBwT3eas/HCc3Z7xiPialV6Xwdcg8quYz3eYPXopmKNS3LU208WaWBNrCu1UW8XGDZ/PmsJe03THZJSXnfZ3TN5D8KzJFf8qykXF/nq8DwDIhl2+S2WjBw3Z9uBn/5cMR7YspQ8HJuaKP+Y7kQMgbbhYi6cenjW54h1T8DF8KD+V0ES6Q0pLS0Nzc3PoDmnu3Ln8oQCAqVOnoqCgAEuWLME999yDxsbw29SXX34Zv/jFL9DU1ISnn346LEd0wX//lLScbMe7B2djqCBAEIaieH8DPOJ/uePWHPGgiXCOAZBuF1/faUjzOEPvDeu7aiN6CcnbMaUNhz2/CsEtkxkYc+N6/hiIF2uDB14AOHJI5aO8U8A+Evb8KrS1tYUewxX8MURUmpubMW7cuIgOaf78+fyhEaxatQoPPPAAnn/+eQwbNgzDhw/HFVdcgXPOOQcTJ07EgAEDsGnTJvzqV7/iTyV6Gv1ScFnGI2gKvc51bI/eWI6Mtc7g8YddGMbniR5P8nZMF02CC9IdkwAhqxzR/wbMQUnBcgyz2ZBym8YaYPaRwMyhoc+xNUkvggvSHVPwMXzKH0NEMHnyZKSlpeHDDz/sVockZ+nSpdi/fz/mzZuHYcOG4ayzzsLNN9+MNWvW4L333sOoUaP4U7qFNDQ1GidPnuRDIQKBADo6OvhwiP/+9798KERHR4eq9/TkLMx3rhLvmAQIgo7vidLHYUqD+N4wth5Z2AcPfwzRoxHa2toYH+RxOp0oLy/H4MGhWRynDD/+/ve//z2mTp2KSy+9NOy43gTf5kSSSPc777yDl19+GTfddBNqa2tx7733JszNk8h2yzHLC5n7hhtuwNGjR+HxRL5dS3OUNm3axKdQWlqKyy67DNdfH/WzCVW02v3CCy+gX79+UecxxYqW20jMcpvlhTiPqaCgAK+//jqfih/8F1DRvrwyZfBDFHS7Kx0RQ2EhDmyIRty8CvBtltOb3GqDH3ji7eYxy22Wl8ncK1asYNu2bQvLSe5t27ZF3YrEvMEP8Wt3NBL1nEfDSLdZXnbaD36IhTFu2XdTXd9RSV+lEkRvprCwUPGjzlGjRiE1NZUPE0RS0Ts7JoIgCKLHQh0TQRAEkVRQx0QQBEEkFdQxEQRBEEmFxe/3Q16keRbyGGMs9DOf449Ty/vF+vlzpFg0t7yo5fS4lYrRXr7NfE7tfLVcsrkDgUDYtZJIN1/Mcpvl9cfBHQgEotYRL7fSMWp1x8vNx6Wilktmt1lev1i//HXO59TOV8vJ3Rafzwd5gTgRUB6THoSU58+RivTA+Dhfl/z39vZ2HD9+HD4Ft7zE6lYqRnv5NstLb3PLY4l2y4tZbrO8vji4pTc7PhcPd2trK7799tuInJTnY1KJh1ur3XxMKsnsNsvrE91K/ni5wY8ljzYOvcfNY+omRnv5NsvpTW6ax2Sel8XBTfOYwklmt1leRvOYCIIgiNMR6pgIgiCIpII6JoIgCCKpoI6JIAiCSCqoYyIIgiCSCuqYCIIgiKRCaGlpCc5qEvH7/RAEARZLV5911113YcmSJRg0aBA6OzvRp08f+SkhAuLEK6vVyqdCtLa2YuDAgaHfH3roIRQWFsJut0d1y9Hv3oppo/6NWdvvw8X8gVE4Za/3A3w45Pu4sJttlnPK7og2RyeR7r1792L9+vVYtGgRkGA3j1lus7yIg/vpp59GZmYmRo8eHZaLh9vtdiMlJQW33XYbn45Tu/+LZ0Y9ih9sn4V/j3oUP9j+NEbrbLeW+6NnR+HR9Fo8PewZ/OzHC3H41hkYt28AZm2/D99Vbfcb+O3ow5i9fVrU96Ho7g/wgfdifH+Ieru1nu9Y26zkBYCvvvoKhYWF2LBhA5+Kn5sfSx5tHDrNY4rmbWKuTAfbrMPLt1nOqbmD6GlzIt00j8k8L4uDu3fMYwq+LqVW6Gm3EhHuSgezlzbJD9Fo96vsjktLWfgZXURzN5XamaMyiptD3RvHNkfhtJ/HVF0gbbecgfJGAEeeQIa09fJGJ4Sscng3OpFR4ESWzYaUlEJxW+ZqOLPK4UU1nFkZyBAEODdGqU90pKSkwGbLCsUiaUZ5lnSugIwyL7BxLor3V6Dwl8/xBxME0Q2a/zwy9NpybgzGvGUZcBY4YbPZkPKbTaHXbkaZFwh7bxAw+HdbAXhRnqW1LbsX5VnSaz/48xNHgq5wvxflBRnIstkw4rHm4GPZWA1nXgU8M4cGf84qhxfA1t8NjnhPkepLuXwW9oY/gHCqJ4e8wS3lqzF3pgcVeRn4NrhIwmlL8nZMH/4filGF4PIXLtSPLUfzJX/AwUogt8AJZx5Qta8IaQA8DSNR6fOhfR1QLF64IfZnw8UY3PbyiPq8qIa7wYVD7e3w+fahKD38VDnjNogbDh52Afs8wJgSuDIdWLnlHv5QgiB08xUWuu9EE2NgrAkj53R1LhVwwuc7jEffvQXuW8XX3ur18MIL+zxpA9AqjNv3b3CvegXSYM/2oN4DoHE9lmMKbr7kdcxdPSXS3wBMPuTD3unSpoo5cFc6YC9tgnuMGGosxwJIm5J2vadI9bX/vbBLHYXmH84Xz2Woym+ApzEHJaV2OCoP4gwbf/TpRfJ2TN5D8KzJFf+ayEXF/nq8j+DutFWoACq7dqS1F4xDGgAMHxHsNORkjoQdADz1EfV5kIOSguUYnpICm80W+mstklRgg/hX1bBicAaCIE6Vk+149+BsDBUECMJQFO9vgEe883DcKr3CJ8I5BkC6HdkAgDSkeZyh1/L6rto0ybnVgYq11fBuWA4UjEPqkUNo2F8cxZ8Nu8ofqkDwPeXw2q7HUbG/Hp5GDxqy7cH3o0uGYwR/jozUS96HU7xjyl3DZ09vkrdjShsOe750hxPcGv16BD/CK85yAXldf1l5pM7o0F4gyy6rRIZ9ZER9OQDSZhxEe3s7fIdK0bBW4YOA6snIle62Kh18liCIU6VfCi7LeES8Y2Fg7KDqJxdA8E4lY60z9AnGMD6vxhgnHGvcmLvPg+zhacAlw5Gd6eqeX8I+EsNule6YxPeUdDuyGzzBO7gjh1Q+yvPiiSteglO8U3Nl8vnTm+TtmC6aBBekOxwBQlY5mqsnQ5gzElUziuCuBHLFz3ntDcXBz6LHA64ZaXxNQdKLIurzohpOQfyOafgKTJkn/YXGkTMR2TOHBs9bCzgaPPAiDfZs+o6JIGLjLMx3rhLvWKTvWjRIH4cpDeJreWw9srCvG59i5MCZX4GKNY7gXRiuR0nB8u75JdKLsADSHZP0nhL8FGaoICDltpX8GTLScLPzXeSKd1v12UC9B0gbnk3fMQEQ2tvbw4aLBwKBiKF+DocDjz32GAYPHhw1LxEQ9+JQygPAsWPHcO6554Z+/93vfoepU6ciMzNTtW4oPDZUFWLE+wtQ/0BwQGZEXgdR65Whlj+VNstRqxsa+WRzv/3223j55ZdRVlYGJNjNY5bbLC/i4C4rK8Nll12GG264ISKHGN0rVqxASkoKnE4nn1Z9bPFwq52rlk9mt1leAPj0008xadIkvPHGG3xKtW5o5OVui81mg7xYLBZYrdawmCAIoRiAsJy89O3bVzUv1SX/3WKxhP3Mu+Ulat1WAYLFqsutVELe5ieRnZKClLCSjSeOKNerx8u3WV5Oqc1iSUa3/P8z0W55McttltcWB7fSMfFwS4XP2Yxq96bJSElJwYABA2Sv5cl4gztOre5TdotFej7fuIt/T0lByl3BN3X+HKloufV4+bhU1OrV8tpEt5I/Xm6L1WqFvAAIdURSkf8OICzHnys9MKXC5wVxMpZ0Pu+Wl6jumytw8KHgh8J83XpLyPvDGTgY+ry46zPnP1wSxSs7V8urlj+lNstyanVbE+y2WCxh9fF5/vx4uvmiljfSrZYz0muNg9sidh5KOT4uL2p5CaVjDGn3zRVgjAW/Pw5tbleBm6LUH3GuLBe1bllRy0N8zm9aw7+nMLA1N8XkVstJXj4uz/MxeU6tbmuU1zl/vlJOyvMxeU5yR7+nIgiCIAiToI6JIAiCSCqoYyIIgiCSCuqYCIIgiKSCOiaCIAgiqRDa2trC5jFFw+l0ory8HIMHD+ZT3YYff//73/8eU6dOxaWXXhp2XG+Cb3MiSaT7nXfewcsvv4zS0lIgwW4es9xmeREHd2lpKS677DJcf/31fEoTLfcLL7yAfv36RZ3HFCtabiMxy22WF+I8poKCArz++ut8Kn7wS49HW7bcyG0v7rnnHvb/2zv/4DiuOsF/ejSOx8IsB1uVOKkiGzkyaGQJS0pqi6u73LGV3TVI65AYbJYZW2tjCpPU8WOxbJIQAsmZkJVG+XWLw1WdLOKsBF6DlbUiJV42VOqWK6oW4jHY8YhIaHJJwSrscrVeXIoca+bdH9096nkz3T22eqbH5vupemXN+/Z7n3lj9XznjV73S6fTSrm4nSzX7Ua1vfqYnVxJbtn2IjyvCsBdzW0vvvGNb6iDBw/qIaXqYNxu1LM7LK/6Xdn2wl63LgjClYuc58LFEHpiEgRBEAQnkpgEQRCEukISkyAIglBXSGISBEEQ6opILpfDWexbjzvrlFKFn/WYfpxXPGf1r7ex68q5ncUrVonbrVTbq49Zj3m194rVmzufzxf9rtTSrZew3GF5cwG48/l82T6Ccrsd49V3UG693i5esXp2h+XNWf07z3M95tXeK+Z0RxYXF3EWgLfeequozn4SdlxvYxf7ien1el/Ox87jS9w/n2FmcZHFv9tGW7+537Len10qcZf0a5USr1aW69XH7CxXmttZV2u3s4TlDsu7GIDbfrPTY0G4vfpY1rh/PsP/9XH7jVuvs4uvu4JxV8sdlnexcKf28v6g3OhrycutQ6/mdUyf/vSn1c9+9jOlStw/VIm2lJp1HLtct8msSrUllPNqjXJjdrJcrz5mJ1eSW65jCs+rAnBX8zqmJ598Uj311FN6SKlljds8l0d83H7jdsPbbeI37mq5w/Kq35XrmNz41aHHGD3dx9reSRhP0jqQhcmdtPYmabW2MZ4caMUwDIxeazPkXzxmxpx140tbH7cOZGH8PvpOj5rbss8M0mpvrR5tZ3DGPF53NDY2FvrLDrSS7LX6bB/kNcdzFgTh4jn+ycbCOWqeZ1kG21vN85Esj93UweBMlsF2e/vz4nM5+YEnC+eyGbfbTrLjpg7arQ3qhMuHuk1M1/V+nkRbitlD3UX1mXQXE0ox0dlHHxMoNUHi6RGeA57/2rfYNW1OM2fb+0iOw+SRNCmr7szeJti0n1RbgolTe2hiMxPWZmLTD8OJTHnH/PwYiadHsFIdoyRNR+8QqX9wPjtBEC6O87z3nnnr66EJEukMWZqId2bM83FmjG+xg83NsHnM2mRvOgWnMoVzeeTFOwvnslKK2f6lc5mXO+i3vkISLh/qNjG5Ee/dTJP5E7vuaALidLUBZJn66RR968xPTWv3ZUhPZem+fxdDVl1hFmXTDEfbzRnTurvt3+RyjvdaDpPEFjNZNrV0cmpG5kyCcOms5Iaf77RmOj2MWrXdWxKMHpkk+8wwJG+niSYYs74hWdfH0tlqYZ3L9rlfYH0HLc7jhMuCyy4xudNEy4aWwuyoMENq3mNtlz5LKr006wGY7O2BMXPGNL7NEfAhPZUFIDuVpr35ej0sCEKlnH+DrqN/XpgJxe36TUkST49w/+kMHe+9AcaT9DBhHncsUdyH41xWSjGxXY8Klxt1nJia6ML6G1OFfPBLO5ZmR4ZhfpXXaz9ey1DvfrppIt5p/o0pvqWTvnXmjGmUjxcSji+HesxPZod20ffHelAQhIpZ+R/4i5N3mOfoHSfo5IQ1G+omuX2Ub//Nx/nzHjNRde5bax53BMdXfubfmOxz2TAMRkhUfi4L9Ym+MqLcqopwVuWVsly3Gxfjne2Pq8SxpVglXn3MTi7GrVNvblmVF55XBeC+/Fblmfi5/cbtRj27w/KqGq3KM+bm5or2Y8rlchiGQSSyNJn65Cc/yde+9jWuueYaLly4wIoVK5xNCuStC6+87iJ87tw5Vq9eXXj8xS9+kR07dhCPx8u6nSzX7cbFeF87cAsPN/8jB/7UjFXi1cfs5GLcOvXmPnnyJEePHuXBBx+EGrt1wnKH5SUA94EDB2hra+PWW28tigXhHhkZIRaLsXXrVj0c+rgvR3dYXoCzZ8+yY8cOxsbG9FBwbj1rlct4MmNanlcfs5MryS0zpvC8KgC3zJiKqWd3WF5VoxlT+bQmCIIgCCEhiUkQBEGoKyQxCYIgCHWFJCZBEAShrpDEJAiCINQVxsLCQtFy8Xw+X7LUL5FI8Mgjj7BmzZqycZu8tReHWxzgN7/5Db//+79fePyZz3yG3bt309bW5tk3Ls/NphK3G1794hOvxKuP2YlX3/jE6839k5/8hMOHDzMwMAA1duuE5Q7LSwDugYEBNmzYwAc/+MGSGMt0Dw8PE4vFSCaTetjzuQXh9mrrFa9nd1hegDfeeINt27bx/e9/Xw959o1P3OmORKNRnCUSidDQ0FBUZxhGoQ4oijnLVVdd5Rm3+3I+XlhY4N/+7d+IuridxavvStxupdpefczOcqW5I5FI4edau50lLHdY3mgAbrdjgnD/9re/5be//W1JLFoH49br7FLP7rC8Ucvt5g/KHWloaMBZgEIisovzMVAU09vaT8yt6PG3ve1tXH311YX2uttZlut2K9X2esWvJHckEinqT4/r7YN068UrXk23V6ya3oYA3JFIpGwfQbjf8Y538M53vrMkZsf1OmfMq++GCtx+49brnDGvvhtCdHvFqultKHOe6+3dYnZcr3PGbHf5OZUgCIIghIQkJkEQBKGukMQkCIIg1BWSmARBEIS6QhKTIAiCUFcY8/PzRdcxlSOZTDI4OMiaNWtgcieNHz3siH6MsfmvMHVzK08lz3DiL28oHPOx784zbO5CbtXBU6+n2OJYf//Zz36W3bt3s379+kJdCb94nK6vt3Dif23UIy4cZ+fNU3zlJ5/jBj3kZHInXT//ivmcLV59tIsH3nti6XkHgNc1B9Wmlu6XXnqJw4cP09/fDzV264TlDstLAO7+/n42bNjAxo2VnmdL+LkPHjzIypUry17HtFz83JdCpe8D1XBXQlherOuYent7OX78uB4KDv3W4+VuW1607cV3P6YgoYpvjj+rUm2o+MPTauHlh1UcVLx/dik8nVJxUJBQI5ey7cV0SsW3T1R8y3SlJlSiLaUcz8ATp1ffCFBdxK3a3QjzFvW1dMu2F+F5VQBu2fZiidn+uPr4M+G4VQXjDsurLs9tL8bYsf5u6J/lzN4mq26S5LohdvUntGP9KWyLfsdQoS470GrWWVun28dFo1FisQ4GZ5baQ5bBdoPWAZdtlseTVux5tlsXjvUc0g8SBKF6nOfxm3eStM71wrk6nsSwLuKMxXYw6ahzHjfZa7BmzRoMo5XBmSyD7a3me8B4EqN9kFeB53ZErfeKSZJWe6N30vRM7qS1vRXDSDLpiMv7QLhcYmIapUf/DwYyd+/jO0Bm333mLxIA3YyoM+xpKVRUxut/Qx8TKKVQD3WSAeA49x3axaxSKDVL173mL9NIOsX04iILCyfZ02x3cIL72ntgTDmSZHlefeRueGYRpRSpTtMkCEKtOAxbzHN61yHzvSMb349SisXFRZ5JnCQzA5NH0qSmFUrZ57R57v/T3BxKnWFPcxObe+FEBrJTkOg8wTO/eJVMOk5XHCZ7e+CY2X6CnsIH20xnCqVGiA/0FeLyPhAul5iYEkwo8z9QHXJ8CbttnIWFZ0gwSp/bLKVSslPQHjd/jncRB/jFFOnTfaw1DAxjLX2n02RmutnfO8S6aNS8F5f1y8bpNGlHd15MnYZOK3HGbacgCDXiYyQ3ATQR70yTmYGm5gxJa8Z0+6h5VPf9uxha5/xAbJ77f7hmTeEblKaWTkaPDHL0VBf7t8DJqSnSL3cQb86SSScsD3RvSZCeMt+j7HM+cwq67LcceR8IlUtMTOWJt7UAH2R/f5zMvh7ta7WLpKkFTlmfWjInzBnTjS10tqWsGZOyPiVB094zLC4usvDyw6SPWHO1tl1MjO1i6I5B/FJkSxukp8yfM7ZTEIQa8VMyMwBZMulO4s1ZBttHSCrF4uI0D9vropr3cMb6tiSVHmES89yfm5tDTafMcz/eRTw9xBBxmuJdcP/dfHtbgm6aiHeOMmJ//X9klM6W4m9S4u3mbAt5HwidSC6Xw1nsO7w665RShZ9NFHm9nQJ7ed/1X+jn42Toe+DZpWPyymyXz5f0bdcVua/7OP2qx/x0dE+auMoDG3lg25A1YzIwjATP5p4lYX8Xvf5b7PzSRnK5PErlyTV9nmPbhli73fE8nCWvIJ/j+s9/HW43/8bUdyKOyhcfp78e+vP3iuescel1zphXe69Yvbnz+XzR70ot3XoJyx2WNxeAO5/Pl+0jKLfbMQBDt5vfggxte4CNuev58LY0PYZBNLqJkxvgpZdzPLvdPu/t48xzf82aNRjrhsxzv+nD7FQZWP8eck0fZoOaIt7WQi6XY+PwOOo2629IapxD3db7mXW+X/+F/kK870QcAhq3Xm8Xr5jfax6WN1fmPNdjXu29Yk532W0vsG6mZ1Ppthf43NacMssc9W0vsNynT592tDJRSmEYhl5dwC/uhv2CONu+/e1v5w/+4A+ggjH5xfUxOyn3ejvx69svXkv3xW57QYBunbDcYXkJwO227YUdd2tLBe6DBw+yatWqMsvFz/No16eIn3iKUqvJct34jNstRgXxsNxhealg2wsCcBvKfle2OH/+PNFotHC3V4AtW7bwxBNPcO211/Lmm2+yatUqZ5MCuVyOxcVFVq5cqYcKvPHGG1xzzTWFx3feeSd33XUX7e3tRe6/+qu/4uzZs0VtFxcXC7dO11HWzMv5vAtMH+Pr331Zq1zP1ntu40breUesO+bafOpTn+KGG8zrm4Ies5Nyr7eTy8n94x//mNHRUR599FGosVsnLHdYXgJwP/roo3R0dNDdXXzxThDu4eFhGhsb6e3t1aM8vP4veN/L36HcJUNBuP3GHeZrfqnusLwAv/zlL0kmk7z44ot6KDi3vpa83Dr0ouuYKlyH7oa+/r6i65gslut2o9pefcxOriS3XMcUnlcF4JbrmIqpZ3dYXnV5XsckCIIgCMtDEpMgCIJQV0hiEgRBEOoKSUyCIAhCXSGJSRAEQagrjLm5uaLl4rlcDsMwitaaf/SjH+XTn/4073rXuzyXbPutYafMcsFvfOMb9PT0cMMNN/i2X67bDb+2y/XqY3bi1/5ycr/yyiv88Ic/5K//+q8BOHfuHKtXry7EnZT7PXNy4cIFVqxYoVeD5VZKuS5JJUR3WF4CcB84cIC2tjZuvfXWolgQ7pGREWKxGFu3btXDoY/7cnSH5QU4e/YsO3bsYGxsTA8F5q7oOqZbbrmF9evX87a3vc3zzcrzWiKL+fl5GhsbC4+fffZZWlpaaG5uJlfmeiIny3W7UW2vPmYnV5J7bm6OSCTC008/DSFfaxGWOywvAbireR3TQw89RCwW45577tHDoY/7cnSH5UWuYypluW43qu3Vx+zkSnLLdUzheVUAbrmOqZh6doflVXIdkyAIgvC7iCQmQRAEoa6QxCQIgiDUFZKYBEEQhLqi7LYX+lK/Sre9yJdZQqyj365d3/bCq61XvBK3G1794hOvxKuP2YlX3/jE6819sdteuPWNT7ycWycsd1heAnC7bXsRhHt4eNjcYbpk2wvv5xaE26utV7ye3WF5sVYEem174dXWK+50R6LRKM4SiURoaGgoqjMMo1DH5E5isZij7OT70dd54qYYNz3xSwCiz5vH7HzebP/6Y52F4//bP5ib+jl9Xm5nAUrq7HLVVVd5xovL6zxx006+bz02vX/Pzpue4K2SY5fvNayNDMuVao+51m7n/2et3c4SljssbzQAt9sxQbjtosei0RyP37x0LuqlrPv5nXQ+9nrhsZ+73Jii0SjRV1/nVavv119d6s8uZd1acXW/+jqvebmX+f/t6vUb8zK9Ucvt5g/KHWloaMBZsDbMc9Y5H5skmChsbz7KnzU0ELEuhYlkn6D99m8T759l9MMNNGQf47a7ITWtUMcSjH39f4LWtz2Ycm79uel1zpjdj39pZu9p83nbbc0Xu3z75Xq94tUes1c8aHfEuibK+Vhv52wfpFsvXvFqur1i1fQ2BOCOWMnDLabXO4tX3MbtGIBImfpCTG/34VHOfLG58LgkrrUvP+7XeOyjX+HnQMNkL7cd0+Mubq2Uj5t9T7m6l/rX65yx8n2bxSvmPualuF7njHn13VDmPNfbu8XsuF7njNnu8nOqS2aMHevvhv5ZzuxtMqua93BGnWFPM2Sn0noDD/4PyfZBsgAzg7T2TgIw2Wtvr9zK4AzAJEl7a/WbHjOPZ5JkeyuthkFyvKhTiyyD7UkmgexAK7FYjOiGfVzMsxMEIWjMc9kwDAzrfGfmETpiMQwjSbLXOufHk7QOZGE8iWFvrW6Y53N5sgy22+8bhtX2PvpOj3LHzV/lS/eOktm3luS4+X5gH7f9Wav1QCvJXtNl9E4W3oNaB7LACyTbkySt/pPjFPq+/abHyM48Qqs+JsGXS0xMo/SUebEzd+/jO0Bm332lvyQzg/Tsy7Buaw9Ln6EuluOMpFPMKoWyk91AHxxTLC4usvDgSXoGzNTE6U5SSjGySe/DyST3HdrF1MICi9/bqQcFQaghk709cMz8JmaCHpLj8Nz+YXa8vIBSSTBvKFLM9gnm5uaY7U8zUvZDqMnmMesbnukUnMrApv2k2hKM/eSrfO2hBPH+WUY2me8H5vvLLJ1f2s7zVvtRkig1Syrdw8gWq59DR3kN4HSarjGFUhNw7yBZq+9nXvo8PDNMpzUmdajcHr1COS4xMTm+ynO+2NvGWVh4hgSj9NkJAsxPQuv6yLSlGLnrekf9xbKR/b1DrLWSYnIcMqcyjN5mzZg+8h0ypzLmoW1dxPXmOjMZ0p1xbgBojtOpxwVBqBFZMukESeuDZPeWBOmp/00m3UHLjQDdJLdrTYB4u+9ZDjTBmDUTWteH9Q5RykyG9Ok+6/1lLftePsnUL8xQYov9Pmc9R+f7RdsuNjcDxOniRFH/TX39cJv1Id7+Bkjw5RITU3nibS3AB9nfHyezr8f6qi3LYHsPo20pZk/t4ZLSUmbpP7tp75nCJ5/0kUni7XES9oxpYeHiPpU0x+lMZ3gV65dSjwuCUCOaiHeOFmY9k0dG6Wz5L8Q77eSQJXOpJ+iz2+lhwnzfOJbQo0s0x+lss7+RUSwunuLzN+oHleG0/f6U4QT6B+IPMWL1N9E5xNGZoqDgQqCJyaZpb4oEGfoenISZowydBqxPIms+8CQ5vUFZ/hPJTuvTy71p6z/7+NJ30OuG2HV/N017U2DPmGIx63vfSulmf+8QLbEY0Y8M60FBEGpI96GJwuyihwlGNsGH7tvJt9bHMIwehvQGlfJnCTr3rTXfN45AIp0hayXCO25+nGy8C/atJTluvh/Y38hEo0tf5XnSlqbPMDCMHnhoD01W37ff9Bj/mGov/M2qhxR7mvXGQjmM+fn5ouuYypFMJhkcHGTNmjV66KLR199/9rOfZffu3axfv77ouH/913/lwoULRXW14J3vfCexWEyvXhb6mGtJLd0vvfQShw8fpr+/H2rs1gnLHZaXANz9/f1s2LCBjRs36iFf/NwHDx5k5cqVZa9j8uL4J7uYuucEn7vxVR6/eTMcPsHntFmMn7ua/OY3R+jb+Cu+8pPPmX8SqBFhjvmNN96gt7eX48eP66HAqGjbiy1btvDEE09w7bXXVn7bchf027Xfeeed3HXXXbS3txe5n3rqKX70ox8Vtb3YbRjgt/zsyCg/+n+OKuCd70+wdcPbC4+d2z/s27ePtWvXFh0f9JidlHu9nVxO7h//+MeMjo7y6KOPQo3dOmG5w/ISgLua214MDw/T2NhIb2+vHvYe988HaGvZxxTmQodyX9UX3DODtJb8DamF/qnT7H2v+7hd3RWNe5Qv/PE/s//UHqx1yAUqec0v1e33elfLi2x7Ucpy3W5U26uP2cmV5JZtL8LzqgDcsu1FMfXsDsurZNsLQRAE4XcRSUyCIAhCXSGJSRAEQagrJDEJgiAIdUUkl8vhLPatx511SqnCz3pMP84rnrP619vYdeXczuIVq8TtVqrt1cesx7zae8XqzZ3P54t+V2rp1ktY7rC8uQDc+Xy+bB9Bud2O8eo7KLdebxevWD27w/LmrP6d57ke82rvFXO6y+7HhHWXV5s/+ZM/4a677uJd73oXeY/9NPDZbwPg3//93/m93/u9wuMnnniCTZs20dTUVNbtxK9vv7gb1fbqY3ZyJblfeeUVfvCDH/Dtb38bfK61CNqtE5Y7LC8BuN32Y7Ljbm2pwH3w4EFWrVpV9jomv7794n5ufMbtFqOCeFjusLxUsB8TAbgruo5p165dvPDCC0SjUZRSGIa1x4WG3ZVbHCsbOvt+8803iUQirFy50rf9ct1u+LVdrlcfsxO/9peTe2Fhgd27d/PlL38ZQr7WIix3WF4CcFfzOqZ7772XlStX8tBDD+nh0Md9ObrD8lJP1zE5qXQduhthrr93o9reMMcs7lKq6Q7LqwJwy3VMxdSzOyyvkuuYBEEQhN9FJDEJgiAIdYUkJkEQBKGukMQkCIIg1BWSmARBEIS6wpibmytaLp7L5TAMw3Wt+YULF1ixYoVeDdYadKWU61JBgHPnzrF69Wq9GmrgdqPa3jDHLO5SqukOy0sA7gMHDtDW1satt95aFAvCPTIyQiwWY+vWrXo4hHG/wF0feIW7X7yTayt2v8Bda5IcLTpiHfe88ByfW+90v8aTH3iY97x4gA+UdS+xnHFf/JiXWI4X4OzZs+zYsYOxsTE9FJxbX7IX1HI/N8Jc5uhGtb1hjlncpVTTHZZXBeD+3VkuPqESbSk1e0nuWZVqSyj7VSp1L8XLu5e4ePcSpd4lqulVslxcEIQrn/M8/skuWg2D1oGsudmftRW50TsJwKuPdJDsTRbqJnvNeOtAFoDXDtxixgyD5LjZa3aglWRvklgsRnTHcyVtYIgew6CxsbGoTXE/WR77RMfScyvDkruVwZni2POfMN0wSdIeU/sgZk+T7GxsLHnegokkJkEQwuUk7JpWnNnbxOSDQ+yaViilmG3vY/uz5iGjJFFqllS6h5EtCjWdgkNHyTLJw3+bYFYplJql694kZjoz2ywsTNGf3qS1AU53klKK+fkxuHeQLJPcd2hXUT/PAfx06bmVMDNI0nZP72LoDjvpwEivwXc+ssDitz5EdqAPjpljUg+doKeQ5D7GhDKfV/qI/awFJDEJghA+G4g3A2TJpDP0rTNnEWv3ZTg5Zb6JJ7bYt0lKkNwENMfpBJjJcGrqAdYaBoaxlr7TaTLWzGWpzceL2wC0dREH4L10cYLMTIb06b4y/XRYz60MmROwtcfcUr15M7s4YW3rPko6bfYOkDmVYfQ2a8Z02yiZU9bm760d1nMQdCQxCYJQJzQR74yTsmZMSilO9ZWZqThpjtPe8hVrpqNQ6gx73BKJk9N2Evk5J+gi3hynsy1V1M8X/PqJd8HfTpizpJmjDGEnuwSpUyn4yA6eA+LtcRL2jEkp1KHiexEKpUhiEgShbui+fxdD1ozJMIzCV3nudHP31lFrpmNgGEtf5XnSlqbPMGhsvAMe2kMT3ezvHSrq5zm9jU7zHkZs97ohdo3tMWdPAHTzre/Bpg2PwN4U2DMmj79XCUuU3fbCbakfPvG8zy3PqeB27V5tveKVuN3w6hefeCXeMMcs7lK8+sYn7ucOy0sAbrdtL4JwDw8PE4vFLnrbiyDcXm294vXsDstLBdteeLX1ijvdkWg0irNEIhEaGhqK6pwFKKmzy1VXXeUZj0ajGIZRUmeXarvdSrW9YY5Z3KWlmu6wvNEA3G7HBOG2ix6L1sG49Tq71LM7LG/Ucrv5g3JHGhoacBasPXb0emdcr3PG7CfmVrzi1Xa7lWp7veLiLo3Zcb3OGfPquyFEt1esmt6GANwRK3m4xfR6Z/GK27gdE/a49TpnzKvvhhDdXrFqehsst1v/QbnLz6kEQRAEISQkMQmCIAh1hSQmQRAEoa6QxCQIgiDUFZKYBEEQhLrCmJ+fL7qOqdp4rb+/UglzzOKuLWF5CcDd39/Phg0b2Lhxox7yxc998OBBVq5cWfY6puXi564mYbnD8mJdx9Tb28vx48f1UHDotx4P6rblboR5u3Y3qu0Nc8ziLqWa7rC8KgB3Nbe9+NSnPqU+85nP6CGl6mDcbtSzOyyvkm0vBEG4Uujs7OTmm2/WqwWhLJKYBEEQhLpCEpMgCIJQV0hiEgRBEOoKSUyCIAhCXRHJ5XI4i33rcb3eLl4xpcyV53q9s+Tz+ZI6Z8yrvVesErdbqbY3zDGLu7RU0x2WNxeAO5/Pl+0jKLfbMV59B+XW6+3iFatnd1jenNW/Uqqk3o55tfeKOd1l92PCustrOfIe+2lQQdxr/X213W5U2xvmmMVdSjXdYXkJwO22H5Mdd2tLBe6DBw+yatWqstcx+fXtF/dz4zNutxgVxMNyh+Wlgv2YCMKtryUPah26G2Guv3ej2t4wxyzuUqrpDsurAnBX8zqmJ598Uj311FN6SCml1PypM2pWKaXUhEq0payfTZbnnlVTL/uP243luSt7zd3wc4flVXIdkyAIVz7nefxjD5ABoJuRU87tyZdHdqCHr07ptcLlgCQmQRDC4+yvuOfMYXraB8kySbLwb5Jku0E02s5jE4/RahgYRpJJACZJWruoGu2DvAYwM2gdY2D0TgKT3Lcvw3c+0sEjM1kG262YYdA6kDX7aE+y8+ZGDKOVwXG7veUYT9K+YzsdsZjD6+wnyU+KBiIEiSQmQRDC4x3X8fXWjzGhz5ROp+kaUyw+08Hd98OEUkxsH2VkHLIDfXBMoZRCPXSC5IHXyI4N0WnXHeoGutnfH+fPv3eSLzTD5jErNp2CU+b8jNNpOg7Po4510ndvsQMgk+7kmYUF1DHoG8jCzFGGOifMftQIch+L6iGJSRCE+qNtF5ubzR9bkrfTBMTb4wBkTmUYvc2audw2ynRmmqa9KbDr2gfJFnXWBGOtZmxdn/W1oen48I3mj/HezUUOgPj2O7gBIN5lJrPmPaTosWZMrTzzz4VDhYCRxCQIwmVFvD1Owp4dKcXc/7jV/PuU9Xiic4ijM44Gz26nB2umcyzhCHiTOW39gSpzAqyE1X3I8h7r5O9/9EZxAyEwJDEJghAiK2npsP/GVBlFsyPD4JYDr5EdsGZEhkEPKfY0Q1NLp/k3ppYEnfvWmvEjkEhnKnLF0/uIxWIYt0Fqb1Px37Fug09svkZvIgSEMTc3V3QdUy6XwzAM17XmFy5cYMWKFXo1WGvQlVI0NDTooQLnzp1j9erVejXUwO1Gtb1hjlncpVTTHZaXANwHDhygra2NW2+9tSgWhHtkZIRYLMbWrVv1cOjjLuv++7u45ZV9vHjnu2vvrmDcYXkBzp49y44dOxgbG9NDwbn1teRBrUN3I8z1925U2xvmmMVdSjXdYXlVAO7QrmMKedxlOZZQ8Yenw3FXMO6wvEquYxIEQQiJTSOc6gvqiirhYpHEJAiCINQVkpgEQRCEukISkyAIglBXSGISBEEQ6oqy2164LfXDJ573ueU5Fdyu3autV7wStxte/eITr8Qb5pjFXYpX3/jE/dxheQnA7bbtRRDu4eFhYrHYRW97EYTbq61XvJ7dYXmpYNsLr7ZecafbWFxcLEpMi4uLNDQ0YBiGs7rAW2+9xVVXXaVXF/CL//rXv+bqq6/Wq6EGbjeq7Q1zzOIupZrusLwE4B4cHKSjo4MPfehDenjZ7t27d7NixQq++c1v6mHfvv3ifm6/cXv17RcPyx2WF+BXv/oV27Zt4wc/+IEeCswdaWhowFkADMMoqtPjep0zFolESuqdxStebbdbqbbXKy7u0pgd1+ucMa++G0J0e8Wq6W0IwB2JRMr2EYT7/e9/P7fccktJzI7rdc6YV98NFbj9xq3XOWNefTeE6PaKVdPbYLnd+g/KXX5OJQiCIAghIYlJEARBqCskMQmCIAh1hSQmQRAEoa6QxCQIgiDUFcb8/HzRcvFq47X+/kolzDGLu7aE5SUAd39/Pxs2bGDjxo16yBc/98GDB1m5cmXZ65iWi5+7moTlDsuLdR1Tb28vx48f10PBod96PKjblrsR5u3a3ai2N8wxi7uUarrD8qoA3G7bXkw/HFfAUmlLqVk1oRKgEsfMY/7p/nUK4uqbWb11HW57MT2rZq0fy7lnp83opbtnVaotoZ4pck+oRFuq4FUubhs/d3mvSdkxO1iOV8m2F4Ig1A3rH2bW2rpcndpD0YYQ40n+8MFpEsfOsPsGZ6AemSR5x1G9conxJD2l+99dJE3sOTVC8f0zhItBEpMgCJfO1CCtt42y+dAcI5v0YCWc5/GbdzIJZtKwt1gfT2IYBtFolI5HXjWjvfZ26q0MzgBkGext5ZY1a2gdcNksfWIH0WgUwzBoHciSHehj9HQfa3snYWaQrsZGR59ZBu8dJbNvLcnxLI9s2M7zUPZ52f2VJ8tge5LngWyq3Ty+vY+0fpjgiiQmQRD8eflu1pZ5Qx7d10cGOPrQk+Ybd0BMHkmTmlYsLi5y8gs3wMwgfUyYMzaV4sQdVqJIQ+JHc5zZW35Tv+e/d5L+qUWUUpzZ20TT3hSJthSzh7qBzRydn0cpxWw/nMg0seehBPH+Wdckaz8vuz9vnuf+p3eaM82xXXpQ8EASkyAI/ji+ynO+Icf7Z1HTKdZNPcB940UtlkX3/bsYWmfOmGKfeB4yJ8g83WPNVnoYPX2CDACdvMcjP3zwSzsYbjFnTEavOS8r0Ax/d7M5Y1q7z+zND/t5le1P5xdTnOyMm197Nsfp1OOCK5KYBEG4ZDpbmqB5D1/dAqO3JXlBP+BimMksfd3VvIczSrG4OM3DP/0Ok/Eu4tvtGZNCqRG6i1uX58bPc2pxEaVmSaVHrK8MTSZ7e+CwOWOa2O4I6JR5XnZ/nuO9sYWOdMac2Tn7EHyJ5HI5nMW+9bhebxevmFLmynO93lny+XxJnTPm1d4rVonbrVTbG+aYxV1aqukOy5sLwJ3P58v2YS7G09vmzSV6efPxH/3l/cQZ5YFvZEva2+5yfedyUT6c/Ck9hoFx+xAo85hnt5uzkmh0Hd9KfpWNTZ+nX9kzJgOjbYCZXI68Ui79muW5T8SsvzGtZWjbA2zMvYcO1cfa7c+y8SMd3NNuzpj+Rn2c9JkZcu/pgH1rSfzd9dyxPc3tsVjZ52X390cu7rxSqPyf8uD2YfMrUEcfdil9TZeK3/+315gr+b/W6+zi581Z/SulSurtmFd7r5jTXXY/Jqy7vJYj77GfBhXEvdbfV9vtRrW9YY5Z3KVU0x2WlwDcbvsx2XG3tlTgPnjwIKtWrSq5juns2bPce++9GC7bJGBe0uIZX1hYIBaL6dVgtcW643U5/Pr2i1+s+93vfjdf/OIXoYLX1Cvu93rj83/tFqOCuN9+TATgNpT96lmcP3+eaDRauA25zptvvsmqVav0arAy3eLiIitXrtRDBd544w2uueYavRpq4Haj2t4wxyzuUqrpDstLAO5HH32Ujo4OuruLvyQLwj08PExjYyO9vb1FsQsXLvD666+7vrnbn6a99vD5l3/5F07t72D7d7XAR58mO/Cfi7ZV0PFKLP7u1xj8r/+RR2aKa9fd9yNevPN63nrrrbLu6667Dpb5/+33evv9X1+qF+CXv/wlyWSSF198UQ8F5nZPXYIgCFVmxYoVXHvttVx33XWuxS++Zs0ath2x//bkKEe2+bZdXvz97PvhXIn3lf/+fs+2gj+SmARBEIS6QhKTIAiCUFdIYhIEQRDqCklMgiAIQl0hiUkQBEGoK4y5ubmi5eK5XA7DMFzXml+4cIEVK1bo1WCtQVdKuS4VBDh37hyrV6/Wq6EGbjeq7Q1zzOIupZrusLwE4H7ggQc4evRoyVJhVeZ6HB2v61OUUrz55psYhlF2qbDyuFYoCDce7S9Xd1heLPe1117L88+bt7h1UsnvWSW/43IdUw28YY5Z3KVU0x2WlwDc09PTejVYbxi5XM71DQWfCz4vXLhAQ0OD65vV+fPnXccl7vLusLw43O973/v0UEW/Z5X8jktiqoE3zDGLu5RqusPyIm69Gq5gd1heauQun1IFQRAEISQkMQmCIAh1hSQmQRAEoa6QxCQIgiDUFWW3vXBbzYFPPO9zy3N8VpN49Y1PvBK3G1794hOvxBvmmMVdilff+MT93GF5EbdeDT594xOvZ3dYXmrkNhYXF4sS0+LiIg0NDa7r2N966y2P28D7x3/9619z9dVX69VQA7cb1faGOWZxl1JNd1hexK1XwxXsDstLjdyRBmu/ELtgXVyl1zvjep0zFolESuqdxStebbdbqbbXKy7u0pgd1+ucMa++G0J0e8Wq6W0Qd9lypbq9YtX0NtTIXX5OJQiCIAghIYlJEARBqCskMQmCIAh1hSQmQRAEoa6QxCQIgiDUFcb8/HzRcvFq47UG/kolzDGLu7aE5UXcenVNCMsdlpcaueXu4jXwhjlmcZdSTXdYXsStV8MV7A7LS43c8lWeIAiCUFdIYhIEQRDqCklMgiAIQl0hiUkQBEGoKyQxCYIgCHVFw5e//OWvKqWwi313WGeds+RyOSKRSEm9sxiGUVJnl3PnztHY2FhSr2rgdivV9oY5ZnGXxqrpDsurxF1Sr65gd1heVSN32f2YsO7yWg6v/TSoIO61Br7abjeq7Q1zzOIupZrusLyIW6+GK9gdlpcaueU6php4wxyzuEuppjssL+LWq+EKdoflpUZu99QlCIIgCCEgiUkQBEGoKyQxCYIgCHWFJCZBEAShrpDEJAiCINQVkpgEQRCEusKYm5srWi6ey+UwDMN1rfmFCxdYsWKFXg3WGnSllOtSQYBz586xevVqvRpq4Haj2t4wxyzuUqrpDsuLuPVquILdYXmpkVuuY6qBN8wxi7uUarrD8iJuvRquYHdYXmrkLp/WBEEQBCEkJDEJgiAIdYUkJkEQBKGukMQkCIIg1BWSmARBEIS6ouy2F25L/fCJ531ueU4Ft0z3ausVr8Tthle/+MQr8YY5ZnGX4tU3PnE/d1hexK1Xg0/f+MTr2R2Wlxq5/z8BquA6eCn37AAAAABJRU5ErkJggg==;" vertex="1" parent="1">
          <mxGeometry x="-280" y="84" width="422" height="696" as="geometry" />
        </mxCell>
        <mxCell id="PnbTw0q2sO5g_yor8Df--2" value="users" style="shape=table;startSize=30;container=1;collapsible=1;childLayout=tableLayout;fixedRows=1;rowLines=0;fontStyle=1;align=center;resizeLast=1;html=1;" vertex="1" parent="1">
          <mxGeometry x="280" y="150" width="180" height="390" as="geometry" />
        </mxCell>
        <mxCell id="PnbTw0q2sO5g_yor8Df--3" value="" style="shape=tableRow;horizontal=0;startSize=0;swimlaneHead=0;swimlaneBody=0;fillColor=none;collapsible=0;dropTarget=0;points=[[0,0.5],[1,0.5]];portConstraint=eastwest;top=0;left=0;right=0;bottom=1;" vertex="1" parent="PnbTw0q2sO5g_yor8Df--2">
          <mxGeometry y="30" width="180" height="30" as="geometry" />
        </mxCell>
        <mxCell id="PnbTw0q2sO5g_yor8Df--4" value="PK" style="shape=partialRectangle;connectable=0;fillColor=none;top=0;left=0;bottom=0;right=0;fontStyle=1;overflow=hidden;whiteSpace=wrap;html=1;" vertex="1" parent="PnbTw0q2sO5g_yor8Df--3">
          <mxGeometry width="30" height="30" as="geometry">
            <mxRectangle width="30" height="30" as="alternateBounds" />
          </mxGeometry>
        </mxCell>
        <mxCell id="PnbTw0q2sO5g_yor8Df--5" value="id" style="shape=partialRectangle;connectable=0;fillColor=none;top=0;left=0;bottom=0;right=0;align=left;spacingLeft=6;fontStyle=5;overflow=hidden;whiteSpace=wrap;html=1;" vertex="1" parent="PnbTw0q2sO5g_yor8Df--3">
          <mxGeometry x="30" width="150" height="30" as="geometry">
            <mxRectangle width="150" height="30" as="alternateBounds" />
          </mxGeometry>
        </mxCell>
        <mxCell id="PnbTw0q2sO5g_yor8Df--6" value="" style="shape=tableRow;horizontal=0;startSize=0;swimlaneHead=0;swimlaneBody=0;fillColor=none;collapsible=0;dropTarget=0;points=[[0,0.5],[1,0.5]];portConstraint=eastwest;top=0;left=0;right=0;bottom=0;" vertex="1" parent="PnbTw0q2sO5g_yor8Df--2">
          <mxGeometry y="60" width="180" height="30" as="geometry" />
        </mxCell>
        <mxCell id="PnbTw0q2sO5g_yor8Df--7" value="" style="shape=partialRectangle;connectable=0;fillColor=none;top=0;left=0;bottom=0;right=0;editable=1;overflow=hidden;whiteSpace=wrap;html=1;" vertex="1" parent="PnbTw0q2sO5g_yor8Df--6">
          <mxGeometry width="30" height="30" as="geometry">
            <mxRectangle width="30" height="30" as="alternateBounds" />
          </mxGeometry>
        </mxCell>
        <mxCell id="PnbTw0q2sO5g_yor8Df--8" value="first_name" style="shape=partialRectangle;connectable=0;fillColor=none;top=0;left=0;bottom=0;right=0;align=left;spacingLeft=6;overflow=hidden;whiteSpace=wrap;html=1;" vertex="1" parent="PnbTw0q2sO5g_yor8Df--6">
          <mxGeometry x="30" width="150" height="30" as="geometry">
            <mxRectangle width="150" height="30" as="alternateBounds" />
          </mxGeometry>
        </mxCell>
        <mxCell id="PnbTw0q2sO5g_yor8Df--9" value="" style="shape=tableRow;horizontal=0;startSize=0;swimlaneHead=0;swimlaneBody=0;fillColor=none;collapsible=0;dropTarget=0;points=[[0,0.5],[1,0.5]];portConstraint=eastwest;top=0;left=0;right=0;bottom=0;" vertex="1" parent="PnbTw0q2sO5g_yor8Df--2">
          <mxGeometry y="90" width="180" height="30" as="geometry" />
        </mxCell>
        <mxCell id="PnbTw0q2sO5g_yor8Df--10" value="" style="shape=partialRectangle;connectable=0;fillColor=none;top=0;left=0;bottom=0;right=0;editable=1;overflow=hidden;whiteSpace=wrap;html=1;" vertex="1" parent="PnbTw0q2sO5g_yor8Df--9">
          <mxGeometry width="30" height="30" as="geometry">
            <mxRectangle width="30" height="30" as="alternateBounds" />
          </mxGeometry>
        </mxCell>
        <mxCell id="PnbTw0q2sO5g_yor8Df--11" value="last_name" style="shape=partialRectangle;connectable=0;fillColor=none;top=0;left=0;bottom=0;right=0;align=left;spacingLeft=6;overflow=hidden;whiteSpace=wrap;html=1;" vertex="1" parent="PnbTw0q2sO5g_yor8Df--9">
          <mxGeometry x="30" width="150" height="30" as="geometry">
            <mxRectangle width="150" height="30" as="alternateBounds" />
          </mxGeometry>
        </mxCell>
        <mxCell id="PnbTw0q2sO5g_yor8Df--12" value="" style="shape=tableRow;horizontal=0;startSize=0;swimlaneHead=0;swimlaneBody=0;fillColor=none;collapsible=0;dropTarget=0;points=[[0,0.5],[1,0.5]];portConstraint=eastwest;top=0;left=0;right=0;bottom=0;" vertex="1" parent="PnbTw0q2sO5g_yor8Df--2">
          <mxGeometry y="120" width="180" height="30" as="geometry" />
        </mxCell>
        <mxCell id="PnbTw0q2sO5g_yor8Df--13" value="" style="shape=partialRectangle;connectable=0;fillColor=none;top=0;left=0;bottom=0;right=0;editable=1;overflow=hidden;whiteSpace=wrap;html=1;" vertex="1" parent="PnbTw0q2sO5g_yor8Df--12">
          <mxGeometry width="30" height="30" as="geometry">
            <mxRectangle width="30" height="30" as="alternateBounds" />
          </mxGeometry>
        </mxCell>
        <mxCell id="PnbTw0q2sO5g_yor8Df--14" value="email" style="shape=partialRectangle;connectable=0;fillColor=none;top=0;left=0;bottom=0;right=0;align=left;spacingLeft=6;overflow=hidden;whiteSpace=wrap;html=1;" vertex="1" parent="PnbTw0q2sO5g_yor8Df--12">
          <mxGeometry x="30" width="150" height="30" as="geometry">
            <mxRectangle width="150" height="30" as="alternateBounds" />
          </mxGeometry>
        </mxCell>
        <mxCell id="PnbTw0q2sO5g_yor8Df--16" value="" style="shape=tableRow;horizontal=0;startSize=0;swimlaneHead=0;swimlaneBody=0;fillColor=none;collapsible=0;dropTarget=0;points=[[0,0.5],[1,0.5]];portConstraint=eastwest;top=0;left=0;right=0;bottom=0;" vertex="1" parent="PnbTw0q2sO5g_yor8Df--2">
          <mxGeometry y="150" width="180" height="30" as="geometry" />
        </mxCell>
        <mxCell id="PnbTw0q2sO5g_yor8Df--17" value="" style="shape=partialRectangle;connectable=0;fillColor=none;top=0;left=0;bottom=0;right=0;editable=1;overflow=hidden;whiteSpace=wrap;html=1;" vertex="1" parent="PnbTw0q2sO5g_yor8Df--16">
          <mxGeometry width="30" height="30" as="geometry">
            <mxRectangle width="30" height="30" as="alternateBounds" />
          </mxGeometry>
        </mxCell>
        <mxCell id="PnbTw0q2sO5g_yor8Df--18" value="email_verified_at" style="shape=partialRectangle;connectable=0;fillColor=none;top=0;left=0;bottom=0;right=0;align=left;spacingLeft=6;overflow=hidden;whiteSpace=wrap;html=1;" vertex="1" parent="PnbTw0q2sO5g_yor8Df--16">
          <mxGeometry x="30" width="150" height="30" as="geometry">
            <mxRectangle width="150" height="30" as="alternateBounds" />
          </mxGeometry>
        </mxCell>
        <mxCell id="PnbTw0q2sO5g_yor8Df--19" value="" style="shape=tableRow;horizontal=0;startSize=0;swimlaneHead=0;swimlaneBody=0;fillColor=none;collapsible=0;dropTarget=0;points=[[0,0.5],[1,0.5]];portConstraint=eastwest;top=0;left=0;right=0;bottom=0;" vertex="1" parent="PnbTw0q2sO5g_yor8Df--2">
          <mxGeometry y="180" width="180" height="30" as="geometry" />
        </mxCell>
        <mxCell id="PnbTw0q2sO5g_yor8Df--20" value="" style="shape=partialRectangle;connectable=0;fillColor=none;top=0;left=0;bottom=0;right=0;editable=1;overflow=hidden;whiteSpace=wrap;html=1;" vertex="1" parent="PnbTw0q2sO5g_yor8Df--19">
          <mxGeometry width="30" height="30" as="geometry">
            <mxRectangle width="30" height="30" as="alternateBounds" />
          </mxGeometry>
        </mxCell>
        <mxCell id="PnbTw0q2sO5g_yor8Df--21" value="avatar" style="shape=partialRectangle;connectable=0;fillColor=none;top=0;left=0;bottom=0;right=0;align=left;spacingLeft=6;overflow=hidden;whiteSpace=wrap;html=1;" vertex="1" parent="PnbTw0q2sO5g_yor8Df--19">
          <mxGeometry x="30" width="150" height="30" as="geometry">
            <mxRectangle width="150" height="30" as="alternateBounds" />
          </mxGeometry>
        </mxCell>
        <mxCell id="PnbTw0q2sO5g_yor8Df--22" value="" style="shape=tableRow;horizontal=0;startSize=0;swimlaneHead=0;swimlaneBody=0;fillColor=none;collapsible=0;dropTarget=0;points=[[0,0.5],[1,0.5]];portConstraint=eastwest;top=0;left=0;right=0;bottom=0;" vertex="1" parent="PnbTw0q2sO5g_yor8Df--2">
          <mxGeometry y="210" width="180" height="30" as="geometry" />
        </mxCell>
        <mxCell id="PnbTw0q2sO5g_yor8Df--23" value="" style="shape=partialRectangle;connectable=0;fillColor=none;top=0;left=0;bottom=0;right=0;editable=1;overflow=hidden;whiteSpace=wrap;html=1;" vertex="1" parent="PnbTw0q2sO5g_yor8Df--22">
          <mxGeometry width="30" height="30" as="geometry">
            <mxRectangle width="30" height="30" as="alternateBounds" />
          </mxGeometry>
        </mxCell>
        <mxCell id="PnbTw0q2sO5g_yor8Df--24" value="password" style="shape=partialRectangle;connectable=0;fillColor=none;top=0;left=0;bottom=0;right=0;align=left;spacingLeft=6;overflow=hidden;whiteSpace=wrap;html=1;" vertex="1" parent="PnbTw0q2sO5g_yor8Df--22">
          <mxGeometry x="30" width="150" height="30" as="geometry">
            <mxRectangle width="150" height="30" as="alternateBounds" />
          </mxGeometry>
        </mxCell>
        <mxCell id="PnbTw0q2sO5g_yor8Df--25" value="" style="shape=tableRow;horizontal=0;startSize=0;swimlaneHead=0;swimlaneBody=0;fillColor=none;collapsible=0;dropTarget=0;points=[[0,0.5],[1,0.5]];portConstraint=eastwest;top=0;left=0;right=0;bottom=0;" vertex="1" parent="PnbTw0q2sO5g_yor8Df--2">
          <mxGeometry y="240" width="180" height="30" as="geometry" />
        </mxCell>
        <mxCell id="PnbTw0q2sO5g_yor8Df--26" value="" style="shape=partialRectangle;connectable=0;fillColor=none;top=0;left=0;bottom=0;right=0;editable=1;overflow=hidden;whiteSpace=wrap;html=1;" vertex="1" parent="PnbTw0q2sO5g_yor8Df--25">
          <mxGeometry width="30" height="30" as="geometry">
            <mxRectangle width="30" height="30" as="alternateBounds" />
          </mxGeometry>
        </mxCell>
        <mxCell id="PnbTw0q2sO5g_yor8Df--27" value="login_attempts" style="shape=partialRectangle;connectable=0;fillColor=none;top=0;left=0;bottom=0;right=0;align=left;spacingLeft=6;overflow=hidden;whiteSpace=wrap;html=1;" vertex="1" parent="PnbTw0q2sO5g_yor8Df--25">
          <mxGeometry x="30" width="150" height="30" as="geometry">
            <mxRectangle width="150" height="30" as="alternateBounds" />
          </mxGeometry>
        </mxCell>
        <mxCell id="PnbTw0q2sO5g_yor8Df--28" value="" style="shape=tableRow;horizontal=0;startSize=0;swimlaneHead=0;swimlaneBody=0;fillColor=none;collapsible=0;dropTarget=0;points=[[0,0.5],[1,0.5]];portConstraint=eastwest;top=0;left=0;right=0;bottom=0;" vertex="1" parent="PnbTw0q2sO5g_yor8Df--2">
          <mxGeometry y="270" width="180" height="30" as="geometry" />
        </mxCell>
        <mxCell id="PnbTw0q2sO5g_yor8Df--29" value="" style="shape=partialRectangle;connectable=0;fillColor=none;top=0;left=0;bottom=0;right=0;editable=1;overflow=hidden;whiteSpace=wrap;html=1;" vertex="1" parent="PnbTw0q2sO5g_yor8Df--28">
          <mxGeometry width="30" height="30" as="geometry">
            <mxRectangle width="30" height="30" as="alternateBounds" />
          </mxGeometry>
        </mxCell>
        <mxCell id="PnbTw0q2sO5g_yor8Df--30" value="rememberToken" style="shape=partialRectangle;connectable=0;fillColor=none;top=0;left=0;bottom=0;right=0;align=left;spacingLeft=6;overflow=hidden;whiteSpace=wrap;html=1;" vertex="1" parent="PnbTw0q2sO5g_yor8Df--28">
          <mxGeometry x="30" width="150" height="30" as="geometry">
            <mxRectangle width="150" height="30" as="alternateBounds" />
          </mxGeometry>
        </mxCell>
        <mxCell id="PnbTw0q2sO5g_yor8Df--31" value="" style="shape=tableRow;horizontal=0;startSize=0;swimlaneHead=0;swimlaneBody=0;fillColor=none;collapsible=0;dropTarget=0;points=[[0,0.5],[1,0.5]];portConstraint=eastwest;top=0;left=0;right=0;bottom=0;" vertex="1" parent="PnbTw0q2sO5g_yor8Df--2">
          <mxGeometry y="300" width="180" height="30" as="geometry" />
        </mxCell>
        <mxCell id="PnbTw0q2sO5g_yor8Df--32" value="" style="shape=partialRectangle;connectable=0;fillColor=none;top=0;left=0;bottom=0;right=0;editable=1;overflow=hidden;whiteSpace=wrap;html=1;" vertex="1" parent="PnbTw0q2sO5g_yor8Df--31">
          <mxGeometry width="30" height="30" as="geometry">
            <mxRectangle width="30" height="30" as="alternateBounds" />
          </mxGeometry>
        </mxCell>
        <mxCell id="PnbTw0q2sO5g_yor8Df--33" value="timestampts" style="shape=partialRectangle;connectable=0;fillColor=none;top=0;left=0;bottom=0;right=0;align=left;spacingLeft=6;overflow=hidden;whiteSpace=wrap;html=1;" vertex="1" parent="PnbTw0q2sO5g_yor8Df--31">
          <mxGeometry x="30" width="150" height="30" as="geometry">
            <mxRectangle width="150" height="30" as="alternateBounds" />
          </mxGeometry>
        </mxCell>
        <mxCell id="PnbTw0q2sO5g_yor8Df--34" value="" style="shape=tableRow;horizontal=0;startSize=0;swimlaneHead=0;swimlaneBody=0;fillColor=none;collapsible=0;dropTarget=0;points=[[0,0.5],[1,0.5]];portConstraint=eastwest;top=0;left=0;right=0;bottom=0;" vertex="1" parent="PnbTw0q2sO5g_yor8Df--2">
          <mxGeometry y="330" width="180" height="30" as="geometry" />
        </mxCell>
        <mxCell id="PnbTw0q2sO5g_yor8Df--35" value="&lt;b&gt;FK&lt;/b&gt;" style="shape=partialRectangle;connectable=0;fillColor=none;top=0;left=0;bottom=0;right=0;editable=1;overflow=hidden;whiteSpace=wrap;html=1;" vertex="1" parent="PnbTw0q2sO5g_yor8Df--34">
          <mxGeometry width="30" height="30" as="geometry">
            <mxRectangle width="30" height="30" as="alternateBounds" />
          </mxGeometry>
        </mxCell>
        <mxCell id="PnbTw0q2sO5g_yor8Df--36" value="user_status_id" style="shape=partialRectangle;connectable=0;fillColor=none;top=0;left=0;bottom=0;right=0;align=left;spacingLeft=6;overflow=hidden;whiteSpace=wrap;html=1;" vertex="1" parent="PnbTw0q2sO5g_yor8Df--34">
          <mxGeometry x="30" width="150" height="30" as="geometry">
            <mxRectangle width="150" height="30" as="alternateBounds" />
          </mxGeometry>
        </mxCell>
        <mxCell id="PnbTw0q2sO5g_yor8Df--37" value="" style="shape=tableRow;horizontal=0;startSize=0;swimlaneHead=0;swimlaneBody=0;fillColor=none;collapsible=0;dropTarget=0;points=[[0,0.5],[1,0.5]];portConstraint=eastwest;top=0;left=0;right=0;bottom=0;" vertex="1" parent="PnbTw0q2sO5g_yor8Df--2">
          <mxGeometry y="360" width="180" height="30" as="geometry" />
        </mxCell>
        <mxCell id="PnbTw0q2sO5g_yor8Df--38" value="&lt;b&gt;FK&lt;/b&gt;" style="shape=partialRectangle;connectable=0;fillColor=none;top=0;left=0;bottom=0;right=0;editable=1;overflow=hidden;whiteSpace=wrap;html=1;" vertex="1" parent="PnbTw0q2sO5g_yor8Df--37">
          <mxGeometry width="30" height="30" as="geometry">
            <mxRectangle width="30" height="30" as="alternateBounds" />
          </mxGeometry>
        </mxCell>
        <mxCell id="PnbTw0q2sO5g_yor8Df--39" value="calendar_id" style="shape=partialRectangle;connectable=0;fillColor=none;top=0;left=0;bottom=0;right=0;align=left;spacingLeft=6;overflow=hidden;whiteSpace=wrap;html=1;" vertex="1" parent="PnbTw0q2sO5g_yor8Df--37">
          <mxGeometry x="30" width="150" height="30" as="geometry">
            <mxRectangle width="150" height="30" as="alternateBounds" />
          </mxGeometry>
        </mxCell>
        <mxCell id="PnbTw0q2sO5g_yor8Df--41" value="calendar" style="shape=table;startSize=30;container=1;collapsible=1;childLayout=tableLayout;fixedRows=1;rowLines=0;fontStyle=1;align=center;resizeLast=1;html=1;" vertex="1" parent="1">
          <mxGeometry x="610" y="210" width="180" height="240" as="geometry" />
        </mxCell>
        <mxCell id="PnbTw0q2sO5g_yor8Df--42" value="" style="shape=tableRow;horizontal=0;startSize=0;swimlaneHead=0;swimlaneBody=0;fillColor=none;collapsible=0;dropTarget=0;points=[[0,0.5],[1,0.5]];portConstraint=eastwest;top=0;left=0;right=0;bottom=1;" vertex="1" parent="PnbTw0q2sO5g_yor8Df--41">
          <mxGeometry y="30" width="180" height="30" as="geometry" />
        </mxCell>
        <mxCell id="PnbTw0q2sO5g_yor8Df--43" value="PK" style="shape=partialRectangle;connectable=0;fillColor=none;top=0;left=0;bottom=0;right=0;fontStyle=1;overflow=hidden;whiteSpace=wrap;html=1;" vertex="1" parent="PnbTw0q2sO5g_yor8Df--42">
          <mxGeometry width="30" height="30" as="geometry">
            <mxRectangle width="30" height="30" as="alternateBounds" />
          </mxGeometry>
        </mxCell>
        <mxCell id="PnbTw0q2sO5g_yor8Df--44" value="id" style="shape=partialRectangle;connectable=0;fillColor=none;top=0;left=0;bottom=0;right=0;align=left;spacingLeft=6;fontStyle=5;overflow=hidden;whiteSpace=wrap;html=1;" vertex="1" parent="PnbTw0q2sO5g_yor8Df--42">
          <mxGeometry x="30" width="150" height="30" as="geometry">
            <mxRectangle width="150" height="30" as="alternateBounds" />
          </mxGeometry>
        </mxCell>
        <mxCell id="PnbTw0q2sO5g_yor8Df--45" value="" style="shape=tableRow;horizontal=0;startSize=0;swimlaneHead=0;swimlaneBody=0;fillColor=none;collapsible=0;dropTarget=0;points=[[0,0.5],[1,0.5]];portConstraint=eastwest;top=0;left=0;right=0;bottom=0;" vertex="1" parent="PnbTw0q2sO5g_yor8Df--41">
          <mxGeometry y="60" width="180" height="30" as="geometry" />
        </mxCell>
        <mxCell id="PnbTw0q2sO5g_yor8Df--46" value="" style="shape=partialRectangle;connectable=0;fillColor=none;top=0;left=0;bottom=0;right=0;editable=1;overflow=hidden;whiteSpace=wrap;html=1;" vertex="1" parent="PnbTw0q2sO5g_yor8Df--45">
          <mxGeometry width="30" height="30" as="geometry">
            <mxRectangle width="30" height="30" as="alternateBounds" />
          </mxGeometry>
        </mxCell>
        <mxCell id="PnbTw0q2sO5g_yor8Df--47" value="event_name" style="shape=partialRectangle;connectable=0;fillColor=none;top=0;left=0;bottom=0;right=0;align=left;spacingLeft=6;overflow=hidden;whiteSpace=wrap;html=1;" vertex="1" parent="PnbTw0q2sO5g_yor8Df--45">
          <mxGeometry x="30" width="150" height="30" as="geometry">
            <mxRectangle width="150" height="30" as="alternateBounds" />
          </mxGeometry>
        </mxCell>
        <mxCell id="PnbTw0q2sO5g_yor8Df--48" value="" style="shape=tableRow;horizontal=0;startSize=0;swimlaneHead=0;swimlaneBody=0;fillColor=none;collapsible=0;dropTarget=0;points=[[0,0.5],[1,0.5]];portConstraint=eastwest;top=0;left=0;right=0;bottom=0;" vertex="1" parent="PnbTw0q2sO5g_yor8Df--41">
          <mxGeometry y="90" width="180" height="30" as="geometry" />
        </mxCell>
        <mxCell id="PnbTw0q2sO5g_yor8Df--49" value="" style="shape=partialRectangle;connectable=0;fillColor=none;top=0;left=0;bottom=0;right=0;editable=1;overflow=hidden;whiteSpace=wrap;html=1;" vertex="1" parent="PnbTw0q2sO5g_yor8Df--48">
          <mxGeometry width="30" height="30" as="geometry">
            <mxRectangle width="30" height="30" as="alternateBounds" />
          </mxGeometry>
        </mxCell>
        <mxCell id="PnbTw0q2sO5g_yor8Df--50" value="event_time_from" style="shape=partialRectangle;connectable=0;fillColor=none;top=0;left=0;bottom=0;right=0;align=left;spacingLeft=6;overflow=hidden;whiteSpace=wrap;html=1;" vertex="1" parent="PnbTw0q2sO5g_yor8Df--48">
          <mxGeometry x="30" width="150" height="30" as="geometry">
            <mxRectangle width="150" height="30" as="alternateBounds" />
          </mxGeometry>
        </mxCell>
        <mxCell id="PnbTw0q2sO5g_yor8Df--51" value="" style="shape=tableRow;horizontal=0;startSize=0;swimlaneHead=0;swimlaneBody=0;fillColor=none;collapsible=0;dropTarget=0;points=[[0,0.5],[1,0.5]];portConstraint=eastwest;top=0;left=0;right=0;bottom=0;" vertex="1" parent="PnbTw0q2sO5g_yor8Df--41">
          <mxGeometry y="120" width="180" height="30" as="geometry" />
        </mxCell>
        <mxCell id="PnbTw0q2sO5g_yor8Df--52" value="" style="shape=partialRectangle;connectable=0;fillColor=none;top=0;left=0;bottom=0;right=0;editable=1;overflow=hidden;whiteSpace=wrap;html=1;" vertex="1" parent="PnbTw0q2sO5g_yor8Df--51">
          <mxGeometry width="30" height="30" as="geometry">
            <mxRectangle width="30" height="30" as="alternateBounds" />
          </mxGeometry>
        </mxCell>
        <mxCell id="PnbTw0q2sO5g_yor8Df--53" value="event_time_to" style="shape=partialRectangle;connectable=0;fillColor=none;top=0;left=0;bottom=0;right=0;align=left;spacingLeft=6;overflow=hidden;whiteSpace=wrap;html=1;" vertex="1" parent="PnbTw0q2sO5g_yor8Df--51">
          <mxGeometry x="30" width="150" height="30" as="geometry">
            <mxRectangle width="150" height="30" as="alternateBounds" />
          </mxGeometry>
        </mxCell>
        <mxCell id="PnbTw0q2sO5g_yor8Df--54" value="" style="shape=tableRow;horizontal=0;startSize=0;swimlaneHead=0;swimlaneBody=0;fillColor=none;collapsible=0;dropTarget=0;points=[[0,0.5],[1,0.5]];portConstraint=eastwest;top=0;left=0;right=0;bottom=0;" vertex="1" parent="PnbTw0q2sO5g_yor8Df--41">
          <mxGeometry y="150" width="180" height="30" as="geometry" />
        </mxCell>
        <mxCell id="PnbTw0q2sO5g_yor8Df--55" value="" style="shape=partialRectangle;connectable=0;fillColor=none;top=0;left=0;bottom=0;right=0;editable=1;overflow=hidden;whiteSpace=wrap;html=1;" vertex="1" parent="PnbTw0q2sO5g_yor8Df--54">
          <mxGeometry width="30" height="30" as="geometry">
            <mxRectangle width="30" height="30" as="alternateBounds" />
          </mxGeometry>
        </mxCell>
        <mxCell id="PnbTw0q2sO5g_yor8Df--56" value="event_link" style="shape=partialRectangle;connectable=0;fillColor=none;top=0;left=0;bottom=0;right=0;align=left;spacingLeft=6;overflow=hidden;whiteSpace=wrap;html=1;" vertex="1" parent="PnbTw0q2sO5g_yor8Df--54">
          <mxGeometry x="30" width="150" height="30" as="geometry">
            <mxRectangle width="150" height="30" as="alternateBounds" />
          </mxGeometry>
        </mxCell>
        <mxCell id="PnbTw0q2sO5g_yor8Df--57" value="" style="shape=tableRow;horizontal=0;startSize=0;swimlaneHead=0;swimlaneBody=0;fillColor=none;collapsible=0;dropTarget=0;points=[[0,0.5],[1,0.5]];portConstraint=eastwest;top=0;left=0;right=0;bottom=0;" vertex="1" parent="PnbTw0q2sO5g_yor8Df--41">
          <mxGeometry y="180" width="180" height="30" as="geometry" />
        </mxCell>
        <mxCell id="PnbTw0q2sO5g_yor8Df--58" value="&lt;b&gt;FK&lt;/b&gt;" style="shape=partialRectangle;connectable=0;fillColor=none;top=0;left=0;bottom=0;right=0;editable=1;overflow=hidden;whiteSpace=wrap;html=1;" vertex="1" parent="PnbTw0q2sO5g_yor8Df--57">
          <mxGeometry width="30" height="30" as="geometry">
            <mxRectangle width="30" height="30" as="alternateBounds" />
          </mxGeometry>
        </mxCell>
        <mxCell id="PnbTw0q2sO5g_yor8Df--59" value="event_id" style="shape=partialRectangle;connectable=0;fillColor=none;top=0;left=0;bottom=0;right=0;align=left;spacingLeft=6;overflow=hidden;whiteSpace=wrap;html=1;" vertex="1" parent="PnbTw0q2sO5g_yor8Df--57">
          <mxGeometry x="30" width="150" height="30" as="geometry">
            <mxRectangle width="150" height="30" as="alternateBounds" />
          </mxGeometry>
        </mxCell>
        <mxCell id="PnbTw0q2sO5g_yor8Df--60" value="" style="shape=tableRow;horizontal=0;startSize=0;swimlaneHead=0;swimlaneBody=0;fillColor=none;collapsible=0;dropTarget=0;points=[[0,0.5],[1,0.5]];portConstraint=eastwest;top=0;left=0;right=0;bottom=0;" vertex="1" parent="PnbTw0q2sO5g_yor8Df--41">
          <mxGeometry y="210" width="180" height="30" as="geometry" />
        </mxCell>
        <mxCell id="PnbTw0q2sO5g_yor8Df--61" value="&lt;b&gt;FK&lt;/b&gt;" style="shape=partialRectangle;connectable=0;fillColor=none;top=0;left=0;bottom=0;right=0;editable=1;overflow=hidden;whiteSpace=wrap;html=1;" vertex="1" parent="PnbTw0q2sO5g_yor8Df--60">
          <mxGeometry width="30" height="30" as="geometry">
            <mxRectangle width="30" height="30" as="alternateBounds" />
          </mxGeometry>
        </mxCell>
        <mxCell id="PnbTw0q2sO5g_yor8Df--62" value="user_id" style="shape=partialRectangle;connectable=0;fillColor=none;top=0;left=0;bottom=0;right=0;align=left;spacingLeft=6;overflow=hidden;whiteSpace=wrap;html=1;" vertex="1" parent="PnbTw0q2sO5g_yor8Df--60">
          <mxGeometry x="30" width="150" height="30" as="geometry">
            <mxRectangle width="150" height="30" as="alternateBounds" />
          </mxGeometry>
        </mxCell>
        <mxCell id="PnbTw0q2sO5g_yor8Df--64" value="" style="edgeStyle=entityRelationEdgeStyle;fontSize=12;html=1;endArrow=ERoneToMany;startArrow=ERzeroToMany;rounded=0;strokeWidth=2;entryX=0;entryY=0.5;entryDx=0;entryDy=0;exitX=1;exitY=0.5;exitDx=0;exitDy=0;jumpSize=47;endSize=12;startSize=12;" edge="1" parent="1" source="PnbTw0q2sO5g_yor8Df--19" target="PnbTw0q2sO5g_yor8Df--51">
          <mxGeometry width="100" height="100" relative="1" as="geometry">
            <mxPoint x="471" y="345" as="sourcePoint" />
            <mxPoint x="571" y="345" as="targetPoint" />
          </mxGeometry>
        </mxCell>
        <mxCell id="PnbTw0q2sO5g_yor8Df--67" value="&lt;font style=&quot;font-size: 13px;&quot;&gt;can have&lt;/font&gt;" style="edgeLabel;html=1;align=center;verticalAlign=middle;resizable=0;points=[];" vertex="1" connectable="0" parent="PnbTw0q2sO5g_yor8Df--64">
          <mxGeometry x="-0.1286" relative="1" as="geometry">
            <mxPoint x="13" y="-2" as="offset" />
          </mxGeometry>
        </mxCell>
      </root>
    </mxGraphModel>
  </diagram>
</mxfile>
